M48
; DRILL file {KiCad 7.0.5} date Mon Sep 18 02:08:59 2023
; FORMAT={-:-/ absolute / inch / decimal}
; #@! TF.CreationDate,2023-09-18T02:08:59-06:00
; #@! TF.GenerationSoftware,Kicad,Pcbnew,7.0.5
; #@! TF.FileFunction,Plated,1,2,PTH
FMAT,2
INCH
; #@! TA.AperFunction,Plated,PTH,ComponentDrill
T1C0.0300
; #@! TA.AperFunction,Plated,PTH,ComponentDrill
T2C0.0394
; #@! TA.AperFunction,Plated,PTH,ComponentDrill
T3C0.0409
; #@! TA.AperFunction,Plated,PTH,ComponentDrill
T4C0.0472
; #@! TA.AperFunction,Plated,PTH,ComponentDrill
T5C0.0598
; #@! TA.AperFunction,Plated,PTH,ViaDrill
T6C0.1252
%
G90
G05
T1
X6.0311Y-3.5878
T2
X3.2409Y-2.3425
X3.2409Y-3.3425
X3.2425Y-4.752
X3.2425Y-5.752
X3.3409Y-2.3425
X3.3409Y-3.3425
X3.3425Y-4.752
X3.3425Y-5.752
X3.4409Y-2.3425
X3.4409Y-3.3425
X3.4425Y-4.752
X3.4425Y-5.752
X3.5409Y-2.3425
X3.5409Y-3.3425
X3.5425Y-4.752
X3.5425Y-5.752
X3.5858Y-3.815
X3.5858Y-3.915
X3.5858Y-4.015
X3.5858Y-4.115
X3.5858Y-4.215
X3.5858Y-4.315
X3.6409Y-2.3425
X3.6409Y-3.3425
X3.6425Y-4.752
X3.6425Y-5.752
X3.7409Y-2.3425
X3.7409Y-3.3425
X3.7425Y-4.752
X3.7425Y-5.752
X3.7823Y-3.5728
X3.8409Y-2.3425
X3.8409Y-3.3425
X3.8425Y-4.752
X3.8425Y-5.752
X3.8823Y-3.5728
X3.9118Y-4.5079
X3.9409Y-2.3425
X3.9409Y-3.3425
X3.9425Y-4.752
X3.9425Y-5.752
X3.9724Y-4.0354
X3.9724Y-4.2323
X3.973Y-3.8287
X3.9823Y-3.5728
X4.0118Y-4.5079
X4.0409Y-2.3425
X4.0409Y-3.3425
X4.0425Y-4.752
X4.0425Y-5.752
X4.0724Y-4.0354
X4.0724Y-4.2323
X4.073Y-3.8287
X4.0823Y-3.5728
X4.1118Y-4.5079
X4.1409Y-2.3425
X4.1409Y-3.3425
X4.1425Y-4.752
X4.1425Y-5.752
X4.1724Y-4.0354
X4.1724Y-4.2323
X4.173Y-3.8287
X4.1823Y-3.5728
X4.2118Y-4.5079
X4.2409Y-2.3425
X4.2409Y-3.3425
X4.2425Y-4.752
X4.2425Y-5.752
X4.2823Y-3.5728
X4.3409Y-2.3425
X4.3409Y-3.3425
X4.3425Y-4.752
X4.3425Y-5.752
X4.3823Y-3.5728
X4.4409Y-2.3425
X4.4409Y-3.3425
X4.4425Y-4.752
X4.4425Y-5.752
X4.5409Y-2.3425
X4.5409Y-3.3425
X4.5425Y-4.752
X4.5425Y-5.752
X4.5941Y-3.7894
X4.5941Y-4.2894
X4.6409Y-2.3425
X4.6409Y-3.3425
X4.6425Y-4.752
X4.6425Y-5.752
X4.6941Y-3.7894
X4.6941Y-4.2894
X4.7409Y-2.3425
X4.7409Y-3.3425
X4.7425Y-4.752
X4.7425Y-5.752
X4.7941Y-3.7894
X4.7941Y-4.2894
X4.8409Y-2.3425
X4.8409Y-3.3425
X4.8425Y-4.752
X4.8425Y-5.752
X4.8941Y-3.7894
X4.8941Y-4.2894
X4.9409Y-2.3425
X4.9409Y-3.3425
X4.9425Y-4.752
X4.9425Y-5.752
X4.9941Y-3.7894
X4.9941Y-4.2894
X5.0409Y-3.3425
X5.0425Y-4.752
X5.0425Y-5.752
X5.0941Y-3.7894
X5.0941Y-4.2894
X5.1941Y-3.7894
X5.1941Y-4.2894
X5.2941Y-3.7894
X5.2941Y-4.2894
X5.3201Y-2.4409
X5.3201Y-2.8248
X5.3248Y-2.628
X5.3299Y-3.0315
X5.3323Y-3.2382
X5.3941Y-3.7894
X5.3941Y-4.2894
X5.4941Y-3.7894
X5.4941Y-4.2894
X5.585Y-5.5098
X5.589Y-5.2539
X5.6201Y-2.4409
X5.6201Y-2.8248
X5.6248Y-2.628
X5.6299Y-3.0315
X5.6323Y-3.2382
X5.685Y-5.5098
X5.689Y-5.2539
X5.785Y-5.5098
X5.789Y-5.2539
X5.885Y-5.5098
X5.889Y-5.2539
X5.912Y-2.874
X5.9122Y-2.6772
X5.9122Y-3.0709
X5.985Y-5.5098
X5.989Y-5.2539
X6.012Y-2.874
X6.0122Y-2.6772
X6.0122Y-3.0709
X6.0311Y-3.6878
X6.0311Y-3.7878
X6.0311Y-3.8878
X6.0311Y-3.9878
X6.0311Y-4.0878
X6.0311Y-4.1878
X6.0311Y-4.2878
X6.0311Y-4.3878
X6.0311Y-4.4878
X6.085Y-5.5098
X6.089Y-5.2539
X6.112Y-2.874
X6.1122Y-2.6772
X6.1122Y-3.0709
X6.6283Y-3.7992
X6.6283Y-4.0059
X6.6315Y-4.2028
X6.7283Y-3.7992
X6.7283Y-4.0059
X6.7315Y-4.2028
X6.8283Y-3.7992
X6.8283Y-4.0059
X6.8315Y-4.2028
X7.0795Y-3.9961
X7.3795Y-3.9961
X7.4831Y-3.9961
X7.7831Y-3.9961
T3
X5.0409Y-2.3425
T4
X6.7104Y-4.8228
X6.7104Y-5.4978
X6.7202Y-2.5632
X6.7202Y-3.2382
X8.2654Y-4.8228
X8.2654Y-5.4978
X8.2752Y-2.5632
X8.2752Y-3.2382
T5
X8.1079Y-3.7764
X8.1079Y-3.9764
T6
X2.7831Y-2.2835
X2.7831Y-5.8268
X8.2555Y-2.2835
X8.2555Y-5.8268
T0
M30
