%TF.GenerationSoftware,KiCad,Pcbnew,7.0.5*%
%TF.CreationDate,2023-09-18T02:09:04-06:00*%
%TF.ProjectId,mainPCB,6d61696e-5043-4422-9e6b-696361645f70,rev?*%
%TF.SameCoordinates,Original*%
%TF.FileFunction,Drillmap*%
%TF.FilePolarity,Positive*%
%FSLAX45Y45*%
G04 Gerber Fmt 4.5, Leading zero omitted, Abs format (unit mm)*
G04 Created by KiCad (PCBNEW 7.0.5) date 2023-09-18 02:09:04*
%MOMM*%
%LPD*%
G01*
G04 APERTURE LIST*
%ADD10C,0.200000*%
G04 APERTURE END LIST*
D10*
X21539000Y-5280000D02*
X6539000Y-5280000D01*
X6539000Y-15280000D01*
X21539000Y-15280000D01*
X21539000Y-5280000D01*
X6789777Y-15601484D02*
X6789777Y-15401484D01*
X6789777Y-15401484D02*
X6837396Y-15401484D01*
X6837396Y-15401484D02*
X6865967Y-15411008D01*
X6865967Y-15411008D02*
X6885015Y-15430055D01*
X6885015Y-15430055D02*
X6894539Y-15449103D01*
X6894539Y-15449103D02*
X6904062Y-15487198D01*
X6904062Y-15487198D02*
X6904062Y-15515769D01*
X6904062Y-15515769D02*
X6894539Y-15553865D01*
X6894539Y-15553865D02*
X6885015Y-15572912D01*
X6885015Y-15572912D02*
X6865967Y-15591960D01*
X6865967Y-15591960D02*
X6837396Y-15601484D01*
X6837396Y-15601484D02*
X6789777Y-15601484D01*
X6989777Y-15601484D02*
X6989777Y-15468150D01*
X6989777Y-15506246D02*
X6999301Y-15487198D01*
X6999301Y-15487198D02*
X7008824Y-15477674D01*
X7008824Y-15477674D02*
X7027872Y-15468150D01*
X7027872Y-15468150D02*
X7046920Y-15468150D01*
X7113586Y-15601484D02*
X7113586Y-15468150D01*
X7113586Y-15401484D02*
X7104062Y-15411008D01*
X7104062Y-15411008D02*
X7113586Y-15420531D01*
X7113586Y-15420531D02*
X7123110Y-15411008D01*
X7123110Y-15411008D02*
X7113586Y-15401484D01*
X7113586Y-15401484D02*
X7113586Y-15420531D01*
X7237396Y-15601484D02*
X7218348Y-15591960D01*
X7218348Y-15591960D02*
X7208824Y-15572912D01*
X7208824Y-15572912D02*
X7208824Y-15401484D01*
X7342158Y-15601484D02*
X7323110Y-15591960D01*
X7323110Y-15591960D02*
X7313586Y-15572912D01*
X7313586Y-15572912D02*
X7313586Y-15401484D01*
X7570729Y-15601484D02*
X7570729Y-15401484D01*
X7570729Y-15401484D02*
X7637396Y-15544341D01*
X7637396Y-15544341D02*
X7704062Y-15401484D01*
X7704062Y-15401484D02*
X7704062Y-15601484D01*
X7885015Y-15601484D02*
X7885015Y-15496722D01*
X7885015Y-15496722D02*
X7875491Y-15477674D01*
X7875491Y-15477674D02*
X7856443Y-15468150D01*
X7856443Y-15468150D02*
X7818348Y-15468150D01*
X7818348Y-15468150D02*
X7799301Y-15477674D01*
X7885015Y-15591960D02*
X7865967Y-15601484D01*
X7865967Y-15601484D02*
X7818348Y-15601484D01*
X7818348Y-15601484D02*
X7799301Y-15591960D01*
X7799301Y-15591960D02*
X7789777Y-15572912D01*
X7789777Y-15572912D02*
X7789777Y-15553865D01*
X7789777Y-15553865D02*
X7799301Y-15534817D01*
X7799301Y-15534817D02*
X7818348Y-15525293D01*
X7818348Y-15525293D02*
X7865967Y-15525293D01*
X7865967Y-15525293D02*
X7885015Y-15515769D01*
X7980253Y-15468150D02*
X7980253Y-15668150D01*
X7980253Y-15477674D02*
X7999301Y-15468150D01*
X7999301Y-15468150D02*
X8037396Y-15468150D01*
X8037396Y-15468150D02*
X8056443Y-15477674D01*
X8056443Y-15477674D02*
X8065967Y-15487198D01*
X8065967Y-15487198D02*
X8075491Y-15506246D01*
X8075491Y-15506246D02*
X8075491Y-15563388D01*
X8075491Y-15563388D02*
X8065967Y-15582436D01*
X8065967Y-15582436D02*
X8056443Y-15591960D01*
X8056443Y-15591960D02*
X8037396Y-15601484D01*
X8037396Y-15601484D02*
X7999301Y-15601484D01*
X7999301Y-15601484D02*
X7980253Y-15591960D01*
X8161205Y-15582436D02*
X8170729Y-15591960D01*
X8170729Y-15591960D02*
X8161205Y-15601484D01*
X8161205Y-15601484D02*
X8151682Y-15591960D01*
X8151682Y-15591960D02*
X8161205Y-15582436D01*
X8161205Y-15582436D02*
X8161205Y-15601484D01*
X8161205Y-15477674D02*
X8170729Y-15487198D01*
X8170729Y-15487198D02*
X8161205Y-15496722D01*
X8161205Y-15496722D02*
X8151682Y-15487198D01*
X8151682Y-15487198D02*
X8161205Y-15477674D01*
X8161205Y-15477674D02*
X8161205Y-15496722D01*
M02*
