%TF.GenerationSoftware,KiCad,Pcbnew,7.0.5*%
%TF.CreationDate,2023-09-18T02:09:04-06:00*%
%TF.ProjectId,mainPCB,6d61696e-5043-4422-9e6b-696361645f70,rev?*%
%TF.SameCoordinates,Original*%
%TF.FileFunction,Drillmap*%
%TF.FilePolarity,Positive*%
%FSLAX45Y45*%
G04 Gerber Fmt 4.5, Leading zero omitted, Abs format (unit mm)*
G04 Created by KiCad (PCBNEW 7.0.5) date 2023-09-18 02:09:04*
%MOMM*%
%LPD*%
G01*
G04 APERTURE LIST*
%ADD10C,0.200000*%
%ADD11C,0.076200*%
%ADD12C,0.100000*%
%ADD13C,0.104000*%
%ADD14C,0.120000*%
%ADD15C,0.152000*%
%ADD16C,0.318000*%
G04 APERTURE END LIST*
D10*
X21539000Y-5280000D02*
X6539000Y-5280000D01*
X6539000Y-15280000D01*
X21539000Y-15280000D01*
X21539000Y-5280000D01*
D11*
X15280900Y-9074900D02*
X15357100Y-9151100D01*
X15357100Y-9074900D02*
X15280900Y-9151100D01*
D12*
X8282000Y-5950000D02*
G75*
G03*
X8282000Y-5950000I-50000J0D01*
G01*
X8282000Y-8490000D02*
G75*
G03*
X8282000Y-8490000I-50000J0D01*
G01*
X8286000Y-12070000D02*
G75*
G03*
X8286000Y-12070000I-50000J0D01*
G01*
X8286000Y-14610000D02*
G75*
G03*
X8286000Y-14610000I-50000J0D01*
G01*
X8536000Y-5950000D02*
G75*
G03*
X8536000Y-5950000I-50000J0D01*
G01*
X8536000Y-8490000D02*
G75*
G03*
X8536000Y-8490000I-50000J0D01*
G01*
X8540000Y-12070000D02*
G75*
G03*
X8540000Y-12070000I-50000J0D01*
G01*
X8540000Y-14610000D02*
G75*
G03*
X8540000Y-14610000I-50000J0D01*
G01*
X8790000Y-5950000D02*
G75*
G03*
X8790000Y-5950000I-50000J0D01*
G01*
X8790000Y-8490000D02*
G75*
G03*
X8790000Y-8490000I-50000J0D01*
G01*
X8794000Y-12070000D02*
G75*
G03*
X8794000Y-12070000I-50000J0D01*
G01*
X8794000Y-14610000D02*
G75*
G03*
X8794000Y-14610000I-50000J0D01*
G01*
X9044000Y-5950000D02*
G75*
G03*
X9044000Y-5950000I-50000J0D01*
G01*
X9044000Y-8490000D02*
G75*
G03*
X9044000Y-8490000I-50000J0D01*
G01*
X9048000Y-12070000D02*
G75*
G03*
X9048000Y-12070000I-50000J0D01*
G01*
X9048000Y-14610000D02*
G75*
G03*
X9048000Y-14610000I-50000J0D01*
G01*
X9158000Y-9690000D02*
G75*
G03*
X9158000Y-9690000I-50000J0D01*
G01*
X9158000Y-9944000D02*
G75*
G03*
X9158000Y-9944000I-50000J0D01*
G01*
X9158000Y-10198000D02*
G75*
G03*
X9158000Y-10198000I-50000J0D01*
G01*
X9158000Y-10452000D02*
G75*
G03*
X9158000Y-10452000I-50000J0D01*
G01*
X9158000Y-10706000D02*
G75*
G03*
X9158000Y-10706000I-50000J0D01*
G01*
X9158000Y-10960000D02*
G75*
G03*
X9158000Y-10960000I-50000J0D01*
G01*
X9298000Y-5950000D02*
G75*
G03*
X9298000Y-5950000I-50000J0D01*
G01*
X9298000Y-8490000D02*
G75*
G03*
X9298000Y-8490000I-50000J0D01*
G01*
X9302000Y-12070000D02*
G75*
G03*
X9302000Y-12070000I-50000J0D01*
G01*
X9302000Y-14610000D02*
G75*
G03*
X9302000Y-14610000I-50000J0D01*
G01*
X9552000Y-5950000D02*
G75*
G03*
X9552000Y-5950000I-50000J0D01*
G01*
X9552000Y-8490000D02*
G75*
G03*
X9552000Y-8490000I-50000J0D01*
G01*
X9556000Y-12070000D02*
G75*
G03*
X9556000Y-12070000I-50000J0D01*
G01*
X9556000Y-14610000D02*
G75*
G03*
X9556000Y-14610000I-50000J0D01*
G01*
X9657000Y-9075000D02*
G75*
G03*
X9657000Y-9075000I-50000J0D01*
G01*
X9806000Y-5950000D02*
G75*
G03*
X9806000Y-5950000I-50000J0D01*
G01*
X9806000Y-8490000D02*
G75*
G03*
X9806000Y-8490000I-50000J0D01*
G01*
X9810000Y-12070000D02*
G75*
G03*
X9810000Y-12070000I-50000J0D01*
G01*
X9810000Y-14610000D02*
G75*
G03*
X9810000Y-14610000I-50000J0D01*
G01*
X9911000Y-9075000D02*
G75*
G03*
X9911000Y-9075000I-50000J0D01*
G01*
X9986000Y-11450000D02*
G75*
G03*
X9986000Y-11450000I-50000J0D01*
G01*
X10060000Y-5950000D02*
G75*
G03*
X10060000Y-5950000I-50000J0D01*
G01*
X10060000Y-8490000D02*
G75*
G03*
X10060000Y-8490000I-50000J0D01*
G01*
X10064000Y-12070000D02*
G75*
G03*
X10064000Y-12070000I-50000J0D01*
G01*
X10064000Y-14610000D02*
G75*
G03*
X10064000Y-14610000I-50000J0D01*
G01*
X10140000Y-10250000D02*
G75*
G03*
X10140000Y-10250000I-50000J0D01*
G01*
X10140000Y-10750000D02*
G75*
G03*
X10140000Y-10750000I-50000J0D01*
G01*
X10141500Y-9725000D02*
G75*
G03*
X10141500Y-9725000I-50000J0D01*
G01*
X10165000Y-9075000D02*
G75*
G03*
X10165000Y-9075000I-50000J0D01*
G01*
X10240000Y-11450000D02*
G75*
G03*
X10240000Y-11450000I-50000J0D01*
G01*
X10314000Y-5950000D02*
G75*
G03*
X10314000Y-5950000I-50000J0D01*
G01*
X10314000Y-8490000D02*
G75*
G03*
X10314000Y-8490000I-50000J0D01*
G01*
X10318000Y-12070000D02*
G75*
G03*
X10318000Y-12070000I-50000J0D01*
G01*
X10318000Y-14610000D02*
G75*
G03*
X10318000Y-14610000I-50000J0D01*
G01*
X10394000Y-10250000D02*
G75*
G03*
X10394000Y-10250000I-50000J0D01*
G01*
X10394000Y-10750000D02*
G75*
G03*
X10394000Y-10750000I-50000J0D01*
G01*
X10395500Y-9725000D02*
G75*
G03*
X10395500Y-9725000I-50000J0D01*
G01*
X10419000Y-9075000D02*
G75*
G03*
X10419000Y-9075000I-50000J0D01*
G01*
X10494000Y-11450000D02*
G75*
G03*
X10494000Y-11450000I-50000J0D01*
G01*
X10568000Y-5950000D02*
G75*
G03*
X10568000Y-5950000I-50000J0D01*
G01*
X10568000Y-8490000D02*
G75*
G03*
X10568000Y-8490000I-50000J0D01*
G01*
X10572000Y-12070000D02*
G75*
G03*
X10572000Y-12070000I-50000J0D01*
G01*
X10572000Y-14610000D02*
G75*
G03*
X10572000Y-14610000I-50000J0D01*
G01*
X10648000Y-10250000D02*
G75*
G03*
X10648000Y-10250000I-50000J0D01*
G01*
X10648000Y-10750000D02*
G75*
G03*
X10648000Y-10750000I-50000J0D01*
G01*
X10649500Y-9725000D02*
G75*
G03*
X10649500Y-9725000I-50000J0D01*
G01*
X10673000Y-9075000D02*
G75*
G03*
X10673000Y-9075000I-50000J0D01*
G01*
X10748000Y-11450000D02*
G75*
G03*
X10748000Y-11450000I-50000J0D01*
G01*
X10822000Y-5950000D02*
G75*
G03*
X10822000Y-5950000I-50000J0D01*
G01*
X10822000Y-8490000D02*
G75*
G03*
X10822000Y-8490000I-50000J0D01*
G01*
X10826000Y-12070000D02*
G75*
G03*
X10826000Y-12070000I-50000J0D01*
G01*
X10826000Y-14610000D02*
G75*
G03*
X10826000Y-14610000I-50000J0D01*
G01*
X10927000Y-9075000D02*
G75*
G03*
X10927000Y-9075000I-50000J0D01*
G01*
X11076000Y-5950000D02*
G75*
G03*
X11076000Y-5950000I-50000J0D01*
G01*
X11076000Y-8490000D02*
G75*
G03*
X11076000Y-8490000I-50000J0D01*
G01*
X11080000Y-12070000D02*
G75*
G03*
X11080000Y-12070000I-50000J0D01*
G01*
X11080000Y-14610000D02*
G75*
G03*
X11080000Y-14610000I-50000J0D01*
G01*
X11181000Y-9075000D02*
G75*
G03*
X11181000Y-9075000I-50000J0D01*
G01*
X11330000Y-5950000D02*
G75*
G03*
X11330000Y-5950000I-50000J0D01*
G01*
X11330000Y-8490000D02*
G75*
G03*
X11330000Y-8490000I-50000J0D01*
G01*
X11334000Y-12070000D02*
G75*
G03*
X11334000Y-12070000I-50000J0D01*
G01*
X11334000Y-14610000D02*
G75*
G03*
X11334000Y-14610000I-50000J0D01*
G01*
X11584000Y-5950000D02*
G75*
G03*
X11584000Y-5950000I-50000J0D01*
G01*
X11584000Y-8490000D02*
G75*
G03*
X11584000Y-8490000I-50000J0D01*
G01*
X11588000Y-12070000D02*
G75*
G03*
X11588000Y-12070000I-50000J0D01*
G01*
X11588000Y-14610000D02*
G75*
G03*
X11588000Y-14610000I-50000J0D01*
G01*
X11719000Y-9625000D02*
G75*
G03*
X11719000Y-9625000I-50000J0D01*
G01*
X11719000Y-10895000D02*
G75*
G03*
X11719000Y-10895000I-50000J0D01*
G01*
X11838000Y-5950000D02*
G75*
G03*
X11838000Y-5950000I-50000J0D01*
G01*
X11838000Y-8490000D02*
G75*
G03*
X11838000Y-8490000I-50000J0D01*
G01*
X11842000Y-12070000D02*
G75*
G03*
X11842000Y-12070000I-50000J0D01*
G01*
X11842000Y-14610000D02*
G75*
G03*
X11842000Y-14610000I-50000J0D01*
G01*
X11973000Y-9625000D02*
G75*
G03*
X11973000Y-9625000I-50000J0D01*
G01*
X11973000Y-10895000D02*
G75*
G03*
X11973000Y-10895000I-50000J0D01*
G01*
X12092000Y-5950000D02*
G75*
G03*
X12092000Y-5950000I-50000J0D01*
G01*
X12092000Y-8490000D02*
G75*
G03*
X12092000Y-8490000I-50000J0D01*
G01*
X12096000Y-12070000D02*
G75*
G03*
X12096000Y-12070000I-50000J0D01*
G01*
X12096000Y-14610000D02*
G75*
G03*
X12096000Y-14610000I-50000J0D01*
G01*
X12227000Y-9625000D02*
G75*
G03*
X12227000Y-9625000I-50000J0D01*
G01*
X12227000Y-10895000D02*
G75*
G03*
X12227000Y-10895000I-50000J0D01*
G01*
X12346000Y-5950000D02*
G75*
G03*
X12346000Y-5950000I-50000J0D01*
G01*
X12346000Y-8490000D02*
G75*
G03*
X12346000Y-8490000I-50000J0D01*
G01*
X12350000Y-12070000D02*
G75*
G03*
X12350000Y-12070000I-50000J0D01*
G01*
X12350000Y-14610000D02*
G75*
G03*
X12350000Y-14610000I-50000J0D01*
G01*
X12481000Y-9625000D02*
G75*
G03*
X12481000Y-9625000I-50000J0D01*
G01*
X12481000Y-10895000D02*
G75*
G03*
X12481000Y-10895000I-50000J0D01*
G01*
X12600000Y-5950000D02*
G75*
G03*
X12600000Y-5950000I-50000J0D01*
G01*
X12600000Y-8490000D02*
G75*
G03*
X12600000Y-8490000I-50000J0D01*
G01*
X12604000Y-12070000D02*
G75*
G03*
X12604000Y-12070000I-50000J0D01*
G01*
X12604000Y-14610000D02*
G75*
G03*
X12604000Y-14610000I-50000J0D01*
G01*
X12735000Y-9625000D02*
G75*
G03*
X12735000Y-9625000I-50000J0D01*
G01*
X12735000Y-10895000D02*
G75*
G03*
X12735000Y-10895000I-50000J0D01*
G01*
X12854000Y-8490000D02*
G75*
G03*
X12854000Y-8490000I-50000J0D01*
G01*
X12858000Y-12070000D02*
G75*
G03*
X12858000Y-12070000I-50000J0D01*
G01*
X12858000Y-14610000D02*
G75*
G03*
X12858000Y-14610000I-50000J0D01*
G01*
X12989000Y-9625000D02*
G75*
G03*
X12989000Y-9625000I-50000J0D01*
G01*
X12989000Y-10895000D02*
G75*
G03*
X12989000Y-10895000I-50000J0D01*
G01*
X13243000Y-9625000D02*
G75*
G03*
X13243000Y-9625000I-50000J0D01*
G01*
X13243000Y-10895000D02*
G75*
G03*
X13243000Y-10895000I-50000J0D01*
G01*
X13497000Y-9625000D02*
G75*
G03*
X13497000Y-9625000I-50000J0D01*
G01*
X13497000Y-10895000D02*
G75*
G03*
X13497000Y-10895000I-50000J0D01*
G01*
X13563000Y-6200000D02*
G75*
G03*
X13563000Y-6200000I-50000J0D01*
G01*
X13563000Y-7175000D02*
G75*
G03*
X13563000Y-7175000I-50000J0D01*
G01*
X13575000Y-6675000D02*
G75*
G03*
X13575000Y-6675000I-50000J0D01*
G01*
X13588000Y-7700000D02*
G75*
G03*
X13588000Y-7700000I-50000J0D01*
G01*
X13594000Y-8225000D02*
G75*
G03*
X13594000Y-8225000I-50000J0D01*
G01*
X13751000Y-9625000D02*
G75*
G03*
X13751000Y-9625000I-50000J0D01*
G01*
X13751000Y-10895000D02*
G75*
G03*
X13751000Y-10895000I-50000J0D01*
G01*
X14005000Y-9625000D02*
G75*
G03*
X14005000Y-9625000I-50000J0D01*
G01*
X14005000Y-10895000D02*
G75*
G03*
X14005000Y-10895000I-50000J0D01*
G01*
X14236000Y-13995000D02*
G75*
G03*
X14236000Y-13995000I-50000J0D01*
G01*
X14246000Y-13345000D02*
G75*
G03*
X14246000Y-13345000I-50000J0D01*
G01*
X14325000Y-6200000D02*
G75*
G03*
X14325000Y-6200000I-50000J0D01*
G01*
X14325000Y-7175000D02*
G75*
G03*
X14325000Y-7175000I-50000J0D01*
G01*
X14337000Y-6675000D02*
G75*
G03*
X14337000Y-6675000I-50000J0D01*
G01*
X14350000Y-7700000D02*
G75*
G03*
X14350000Y-7700000I-50000J0D01*
G01*
X14356000Y-8225000D02*
G75*
G03*
X14356000Y-8225000I-50000J0D01*
G01*
X14490000Y-13995000D02*
G75*
G03*
X14490000Y-13995000I-50000J0D01*
G01*
X14500000Y-13345000D02*
G75*
G03*
X14500000Y-13345000I-50000J0D01*
G01*
X14744000Y-13995000D02*
G75*
G03*
X14744000Y-13995000I-50000J0D01*
G01*
X14754000Y-13345000D02*
G75*
G03*
X14754000Y-13345000I-50000J0D01*
G01*
X14998000Y-13995000D02*
G75*
G03*
X14998000Y-13995000I-50000J0D01*
G01*
X15008000Y-13345000D02*
G75*
G03*
X15008000Y-13345000I-50000J0D01*
G01*
X15066500Y-7300000D02*
G75*
G03*
X15066500Y-7300000I-50000J0D01*
G01*
X15067000Y-6800000D02*
G75*
G03*
X15067000Y-6800000I-50000J0D01*
G01*
X15067000Y-7800000D02*
G75*
G03*
X15067000Y-7800000I-50000J0D01*
G01*
X15252000Y-13995000D02*
G75*
G03*
X15252000Y-13995000I-50000J0D01*
G01*
X15262000Y-13345000D02*
G75*
G03*
X15262000Y-13345000I-50000J0D01*
G01*
X15320500Y-7300000D02*
G75*
G03*
X15320500Y-7300000I-50000J0D01*
G01*
X15321000Y-6800000D02*
G75*
G03*
X15321000Y-6800000I-50000J0D01*
G01*
X15321000Y-7800000D02*
G75*
G03*
X15321000Y-7800000I-50000J0D01*
G01*
X15369000Y-9367000D02*
G75*
G03*
X15369000Y-9367000I-50000J0D01*
G01*
X15369000Y-9621000D02*
G75*
G03*
X15369000Y-9621000I-50000J0D01*
G01*
X15369000Y-9875000D02*
G75*
G03*
X15369000Y-9875000I-50000J0D01*
G01*
X15369000Y-10129000D02*
G75*
G03*
X15369000Y-10129000I-50000J0D01*
G01*
X15369000Y-10383000D02*
G75*
G03*
X15369000Y-10383000I-50000J0D01*
G01*
X15369000Y-10637000D02*
G75*
G03*
X15369000Y-10637000I-50000J0D01*
G01*
X15369000Y-10891000D02*
G75*
G03*
X15369000Y-10891000I-50000J0D01*
G01*
X15369000Y-11145000D02*
G75*
G03*
X15369000Y-11145000I-50000J0D01*
G01*
X15369000Y-11399000D02*
G75*
G03*
X15369000Y-11399000I-50000J0D01*
G01*
X15506000Y-13995000D02*
G75*
G03*
X15506000Y-13995000I-50000J0D01*
G01*
X15516000Y-13345000D02*
G75*
G03*
X15516000Y-13345000I-50000J0D01*
G01*
X15574500Y-7300000D02*
G75*
G03*
X15574500Y-7300000I-50000J0D01*
G01*
X15575000Y-6800000D02*
G75*
G03*
X15575000Y-6800000I-50000J0D01*
G01*
X15575000Y-7800000D02*
G75*
G03*
X15575000Y-7800000I-50000J0D01*
G01*
X16886000Y-9650000D02*
G75*
G03*
X16886000Y-9650000I-50000J0D01*
G01*
X16886000Y-10175000D02*
G75*
G03*
X16886000Y-10175000I-50000J0D01*
G01*
X16894000Y-10675000D02*
G75*
G03*
X16894000Y-10675000I-50000J0D01*
G01*
X17140000Y-9650000D02*
G75*
G03*
X17140000Y-9650000I-50000J0D01*
G01*
X17140000Y-10175000D02*
G75*
G03*
X17140000Y-10175000I-50000J0D01*
G01*
X17148000Y-10675000D02*
G75*
G03*
X17148000Y-10675000I-50000J0D01*
G01*
X17394000Y-9650000D02*
G75*
G03*
X17394000Y-9650000I-50000J0D01*
G01*
X17394000Y-10175000D02*
G75*
G03*
X17394000Y-10175000I-50000J0D01*
G01*
X17402000Y-10675000D02*
G75*
G03*
X17402000Y-10675000I-50000J0D01*
G01*
X18032000Y-10150000D02*
G75*
G03*
X18032000Y-10150000I-50000J0D01*
G01*
X18794000Y-10150000D02*
G75*
G03*
X18794000Y-10150000I-50000J0D01*
G01*
X19057000Y-10150000D02*
G75*
G03*
X19057000Y-10150000I-50000J0D01*
G01*
X19819000Y-10150000D02*
G75*
G03*
X19819000Y-10150000I-50000J0D01*
G01*
D13*
X12804000Y-5898000D02*
X12804000Y-6002000D01*
X12752000Y-5950000D02*
X12856000Y-5950000D01*
D14*
X17086727Y-12292427D02*
X17086727Y-12207573D01*
X17001873Y-12207573D01*
X17001873Y-12292427D01*
X17086727Y-12292427D01*
X17086727Y-14006927D02*
X17086727Y-13922073D01*
X17001873Y-13922073D01*
X17001873Y-14006927D01*
X17086727Y-14006927D01*
X17111727Y-6552927D02*
X17111727Y-6468073D01*
X17026873Y-6468073D01*
X17026873Y-6552927D01*
X17111727Y-6552927D01*
X17111727Y-8267427D02*
X17111727Y-8182573D01*
X17026873Y-8182573D01*
X17026873Y-8267427D01*
X17111727Y-8267427D01*
X21036427Y-12292427D02*
X21036427Y-12207573D01*
X20951573Y-12207573D01*
X20951573Y-12292427D01*
X21036427Y-12292427D01*
X21036427Y-14006927D02*
X21036427Y-13922073D01*
X20951573Y-13922073D01*
X20951573Y-14006927D01*
X21036427Y-14006927D01*
X21061427Y-6552927D02*
X21061427Y-6468073D01*
X20976573Y-6468073D01*
X20976573Y-6552927D01*
X21061427Y-6552927D01*
X21061427Y-8267427D02*
X21061427Y-8182573D01*
X20976573Y-8182573D01*
X20976573Y-8267427D01*
X21061427Y-8267427D01*
D15*
X20594000Y-9668000D02*
X20670000Y-9592000D01*
X20594000Y-9516000D01*
X20518000Y-9592000D01*
X20594000Y-9668000D01*
X20594000Y-10176000D02*
X20670000Y-10100000D01*
X20594000Y-10024000D01*
X20518000Y-10100000D01*
X20594000Y-10176000D01*
D16*
X6910000Y-5641000D02*
X7228000Y-5959000D01*
X7228000Y-5641000D02*
X6910000Y-5959000D01*
X7228000Y-5800000D02*
G75*
G03*
X7228000Y-5800000I-159000J0D01*
G01*
X6910000Y-14641000D02*
X7228000Y-14959000D01*
X7228000Y-14641000D02*
X6910000Y-14959000D01*
X7228000Y-14800000D02*
G75*
G03*
X7228000Y-14800000I-159000J0D01*
G01*
X20810000Y-5641000D02*
X21128000Y-5959000D01*
X21128000Y-5641000D02*
X20810000Y-5959000D01*
X21128000Y-5800000D02*
G75*
G03*
X21128000Y-5800000I-159000J0D01*
G01*
X20810000Y-14641000D02*
X21128000Y-14959000D01*
X21128000Y-14641000D02*
X20810000Y-14959000D01*
X21128000Y-14800000D02*
G75*
G03*
X21128000Y-14800000I-159000J0D01*
G01*
D10*
X6789777Y-15601484D02*
X6789777Y-15401484D01*
X6789777Y-15401484D02*
X6837396Y-15401484D01*
X6837396Y-15401484D02*
X6865967Y-15411008D01*
X6865967Y-15411008D02*
X6885015Y-15430055D01*
X6885015Y-15430055D02*
X6894539Y-15449103D01*
X6894539Y-15449103D02*
X6904062Y-15487198D01*
X6904062Y-15487198D02*
X6904062Y-15515769D01*
X6904062Y-15515769D02*
X6894539Y-15553865D01*
X6894539Y-15553865D02*
X6885015Y-15572912D01*
X6885015Y-15572912D02*
X6865967Y-15591960D01*
X6865967Y-15591960D02*
X6837396Y-15601484D01*
X6837396Y-15601484D02*
X6789777Y-15601484D01*
X6989777Y-15601484D02*
X6989777Y-15468150D01*
X6989777Y-15506246D02*
X6999301Y-15487198D01*
X6999301Y-15487198D02*
X7008824Y-15477674D01*
X7008824Y-15477674D02*
X7027872Y-15468150D01*
X7027872Y-15468150D02*
X7046920Y-15468150D01*
X7113586Y-15601484D02*
X7113586Y-15468150D01*
X7113586Y-15401484D02*
X7104062Y-15411008D01*
X7104062Y-15411008D02*
X7113586Y-15420531D01*
X7113586Y-15420531D02*
X7123110Y-15411008D01*
X7123110Y-15411008D02*
X7113586Y-15401484D01*
X7113586Y-15401484D02*
X7113586Y-15420531D01*
X7237396Y-15601484D02*
X7218348Y-15591960D01*
X7218348Y-15591960D02*
X7208824Y-15572912D01*
X7208824Y-15572912D02*
X7208824Y-15401484D01*
X7342158Y-15601484D02*
X7323110Y-15591960D01*
X7323110Y-15591960D02*
X7313586Y-15572912D01*
X7313586Y-15572912D02*
X7313586Y-15401484D01*
X7570729Y-15601484D02*
X7570729Y-15401484D01*
X7570729Y-15401484D02*
X7637396Y-15544341D01*
X7637396Y-15544341D02*
X7704062Y-15401484D01*
X7704062Y-15401484D02*
X7704062Y-15601484D01*
X7885015Y-15601484D02*
X7885015Y-15496722D01*
X7885015Y-15496722D02*
X7875491Y-15477674D01*
X7875491Y-15477674D02*
X7856443Y-15468150D01*
X7856443Y-15468150D02*
X7818348Y-15468150D01*
X7818348Y-15468150D02*
X7799301Y-15477674D01*
X7885015Y-15591960D02*
X7865967Y-15601484D01*
X7865967Y-15601484D02*
X7818348Y-15601484D01*
X7818348Y-15601484D02*
X7799301Y-15591960D01*
X7799301Y-15591960D02*
X7789777Y-15572912D01*
X7789777Y-15572912D02*
X7789777Y-15553865D01*
X7789777Y-15553865D02*
X7799301Y-15534817D01*
X7799301Y-15534817D02*
X7818348Y-15525293D01*
X7818348Y-15525293D02*
X7865967Y-15525293D01*
X7865967Y-15525293D02*
X7885015Y-15515769D01*
X7980253Y-15468150D02*
X7980253Y-15668150D01*
X7980253Y-15477674D02*
X7999301Y-15468150D01*
X7999301Y-15468150D02*
X8037396Y-15468150D01*
X8037396Y-15468150D02*
X8056443Y-15477674D01*
X8056443Y-15477674D02*
X8065967Y-15487198D01*
X8065967Y-15487198D02*
X8075491Y-15506246D01*
X8075491Y-15506246D02*
X8075491Y-15563388D01*
X8075491Y-15563388D02*
X8065967Y-15582436D01*
X8065967Y-15582436D02*
X8056443Y-15591960D01*
X8056443Y-15591960D02*
X8037396Y-15601484D01*
X8037396Y-15601484D02*
X7999301Y-15601484D01*
X7999301Y-15601484D02*
X7980253Y-15591960D01*
X8161205Y-15582436D02*
X8170729Y-15591960D01*
X8170729Y-15591960D02*
X8161205Y-15601484D01*
X8161205Y-15601484D02*
X8151682Y-15591960D01*
X8151682Y-15591960D02*
X8161205Y-15582436D01*
X8161205Y-15582436D02*
X8161205Y-15601484D01*
X8161205Y-15477674D02*
X8170729Y-15487198D01*
X8170729Y-15487198D02*
X8161205Y-15496722D01*
X8161205Y-15496722D02*
X8151682Y-15487198D01*
X8151682Y-15487198D02*
X8161205Y-15477674D01*
X8161205Y-15477674D02*
X8161205Y-15496722D01*
D11*
X6452800Y-15891900D02*
X6529000Y-15968100D01*
X6529000Y-15891900D02*
X6452800Y-15968100D01*
D10*
X6827872Y-15821484D02*
X6846920Y-15821484D01*
X6846920Y-15821484D02*
X6865967Y-15831008D01*
X6865967Y-15831008D02*
X6875491Y-15840531D01*
X6875491Y-15840531D02*
X6885015Y-15859579D01*
X6885015Y-15859579D02*
X6894539Y-15897674D01*
X6894539Y-15897674D02*
X6894539Y-15945293D01*
X6894539Y-15945293D02*
X6885015Y-15983388D01*
X6885015Y-15983388D02*
X6875491Y-16002436D01*
X6875491Y-16002436D02*
X6865967Y-16011960D01*
X6865967Y-16011960D02*
X6846920Y-16021484D01*
X6846920Y-16021484D02*
X6827872Y-16021484D01*
X6827872Y-16021484D02*
X6808824Y-16011960D01*
X6808824Y-16011960D02*
X6799301Y-16002436D01*
X6799301Y-16002436D02*
X6789777Y-15983388D01*
X6789777Y-15983388D02*
X6780253Y-15945293D01*
X6780253Y-15945293D02*
X6780253Y-15897674D01*
X6780253Y-15897674D02*
X6789777Y-15859579D01*
X6789777Y-15859579D02*
X6799301Y-15840531D01*
X6799301Y-15840531D02*
X6808824Y-15831008D01*
X6808824Y-15831008D02*
X6827872Y-15821484D01*
X6980253Y-16002436D02*
X6989777Y-16011960D01*
X6989777Y-16011960D02*
X6980253Y-16021484D01*
X6980253Y-16021484D02*
X6970729Y-16011960D01*
X6970729Y-16011960D02*
X6980253Y-16002436D01*
X6980253Y-16002436D02*
X6980253Y-16021484D01*
X7056443Y-15821484D02*
X7189777Y-15821484D01*
X7189777Y-15821484D02*
X7104062Y-16021484D01*
X7351682Y-15821484D02*
X7313586Y-15821484D01*
X7313586Y-15821484D02*
X7294539Y-15831008D01*
X7294539Y-15831008D02*
X7285015Y-15840531D01*
X7285015Y-15840531D02*
X7265967Y-15869103D01*
X7265967Y-15869103D02*
X7256443Y-15907198D01*
X7256443Y-15907198D02*
X7256443Y-15983388D01*
X7256443Y-15983388D02*
X7265967Y-16002436D01*
X7265967Y-16002436D02*
X7275491Y-16011960D01*
X7275491Y-16011960D02*
X7294539Y-16021484D01*
X7294539Y-16021484D02*
X7332634Y-16021484D01*
X7332634Y-16021484D02*
X7351682Y-16011960D01*
X7351682Y-16011960D02*
X7361205Y-16002436D01*
X7361205Y-16002436D02*
X7370729Y-15983388D01*
X7370729Y-15983388D02*
X7370729Y-15935769D01*
X7370729Y-15935769D02*
X7361205Y-15916722D01*
X7361205Y-15916722D02*
X7351682Y-15907198D01*
X7351682Y-15907198D02*
X7332634Y-15897674D01*
X7332634Y-15897674D02*
X7294539Y-15897674D01*
X7294539Y-15897674D02*
X7275491Y-15907198D01*
X7275491Y-15907198D02*
X7265967Y-15916722D01*
X7265967Y-15916722D02*
X7256443Y-15935769D01*
X7446920Y-15840531D02*
X7456443Y-15831008D01*
X7456443Y-15831008D02*
X7475491Y-15821484D01*
X7475491Y-15821484D02*
X7523110Y-15821484D01*
X7523110Y-15821484D02*
X7542158Y-15831008D01*
X7542158Y-15831008D02*
X7551682Y-15840531D01*
X7551682Y-15840531D02*
X7561205Y-15859579D01*
X7561205Y-15859579D02*
X7561205Y-15878627D01*
X7561205Y-15878627D02*
X7551682Y-15907198D01*
X7551682Y-15907198D02*
X7437396Y-16021484D01*
X7437396Y-16021484D02*
X7561205Y-16021484D01*
X7646920Y-16021484D02*
X7646920Y-15888150D01*
X7646920Y-15907198D02*
X7656443Y-15897674D01*
X7656443Y-15897674D02*
X7675491Y-15888150D01*
X7675491Y-15888150D02*
X7704063Y-15888150D01*
X7704063Y-15888150D02*
X7723110Y-15897674D01*
X7723110Y-15897674D02*
X7732634Y-15916722D01*
X7732634Y-15916722D02*
X7732634Y-16021484D01*
X7732634Y-15916722D02*
X7742158Y-15897674D01*
X7742158Y-15897674D02*
X7761205Y-15888150D01*
X7761205Y-15888150D02*
X7789777Y-15888150D01*
X7789777Y-15888150D02*
X7808824Y-15897674D01*
X7808824Y-15897674D02*
X7818348Y-15916722D01*
X7818348Y-15916722D02*
X7818348Y-16021484D01*
X7913586Y-16021484D02*
X7913586Y-15888150D01*
X7913586Y-15907198D02*
X7923110Y-15897674D01*
X7923110Y-15897674D02*
X7942158Y-15888150D01*
X7942158Y-15888150D02*
X7970729Y-15888150D01*
X7970729Y-15888150D02*
X7989777Y-15897674D01*
X7989777Y-15897674D02*
X7999301Y-15916722D01*
X7999301Y-15916722D02*
X7999301Y-16021484D01*
X7999301Y-15916722D02*
X8008824Y-15897674D01*
X8008824Y-15897674D02*
X8027872Y-15888150D01*
X8027872Y-15888150D02*
X8056443Y-15888150D01*
X8056443Y-15888150D02*
X8075491Y-15897674D01*
X8075491Y-15897674D02*
X8085015Y-15916722D01*
X8085015Y-15916722D02*
X8085015Y-16021484D01*
X8475491Y-15811960D02*
X8304063Y-16069103D01*
X8732634Y-15821484D02*
X8751682Y-15821484D01*
X8751682Y-15821484D02*
X8770729Y-15831008D01*
X8770729Y-15831008D02*
X8780253Y-15840531D01*
X8780253Y-15840531D02*
X8789777Y-15859579D01*
X8789777Y-15859579D02*
X8799301Y-15897674D01*
X8799301Y-15897674D02*
X8799301Y-15945293D01*
X8799301Y-15945293D02*
X8789777Y-15983388D01*
X8789777Y-15983388D02*
X8780253Y-16002436D01*
X8780253Y-16002436D02*
X8770729Y-16011960D01*
X8770729Y-16011960D02*
X8751682Y-16021484D01*
X8751682Y-16021484D02*
X8732634Y-16021484D01*
X8732634Y-16021484D02*
X8713587Y-16011960D01*
X8713587Y-16011960D02*
X8704063Y-16002436D01*
X8704063Y-16002436D02*
X8694539Y-15983388D01*
X8694539Y-15983388D02*
X8685015Y-15945293D01*
X8685015Y-15945293D02*
X8685015Y-15897674D01*
X8685015Y-15897674D02*
X8694539Y-15859579D01*
X8694539Y-15859579D02*
X8704063Y-15840531D01*
X8704063Y-15840531D02*
X8713587Y-15831008D01*
X8713587Y-15831008D02*
X8732634Y-15821484D01*
X8885015Y-16002436D02*
X8894539Y-16011960D01*
X8894539Y-16011960D02*
X8885015Y-16021484D01*
X8885015Y-16021484D02*
X8875491Y-16011960D01*
X8875491Y-16011960D02*
X8885015Y-16002436D01*
X8885015Y-16002436D02*
X8885015Y-16021484D01*
X9018348Y-15821484D02*
X9037396Y-15821484D01*
X9037396Y-15821484D02*
X9056444Y-15831008D01*
X9056444Y-15831008D02*
X9065968Y-15840531D01*
X9065968Y-15840531D02*
X9075491Y-15859579D01*
X9075491Y-15859579D02*
X9085015Y-15897674D01*
X9085015Y-15897674D02*
X9085015Y-15945293D01*
X9085015Y-15945293D02*
X9075491Y-15983388D01*
X9075491Y-15983388D02*
X9065968Y-16002436D01*
X9065968Y-16002436D02*
X9056444Y-16011960D01*
X9056444Y-16011960D02*
X9037396Y-16021484D01*
X9037396Y-16021484D02*
X9018348Y-16021484D01*
X9018348Y-16021484D02*
X8999301Y-16011960D01*
X8999301Y-16011960D02*
X8989777Y-16002436D01*
X8989777Y-16002436D02*
X8980253Y-15983388D01*
X8980253Y-15983388D02*
X8970729Y-15945293D01*
X8970729Y-15945293D02*
X8970729Y-15897674D01*
X8970729Y-15897674D02*
X8980253Y-15859579D01*
X8980253Y-15859579D02*
X8989777Y-15840531D01*
X8989777Y-15840531D02*
X8999301Y-15831008D01*
X8999301Y-15831008D02*
X9018348Y-15821484D01*
X9151682Y-15821484D02*
X9275491Y-15821484D01*
X9275491Y-15821484D02*
X9208825Y-15897674D01*
X9208825Y-15897674D02*
X9237396Y-15897674D01*
X9237396Y-15897674D02*
X9256444Y-15907198D01*
X9256444Y-15907198D02*
X9265968Y-15916722D01*
X9265968Y-15916722D02*
X9275491Y-15935769D01*
X9275491Y-15935769D02*
X9275491Y-15983388D01*
X9275491Y-15983388D02*
X9265968Y-16002436D01*
X9265968Y-16002436D02*
X9256444Y-16011960D01*
X9256444Y-16011960D02*
X9237396Y-16021484D01*
X9237396Y-16021484D02*
X9180253Y-16021484D01*
X9180253Y-16021484D02*
X9161206Y-16011960D01*
X9161206Y-16011960D02*
X9151682Y-16002436D01*
X9399301Y-15821484D02*
X9418349Y-15821484D01*
X9418349Y-15821484D02*
X9437396Y-15831008D01*
X9437396Y-15831008D02*
X9446920Y-15840531D01*
X9446920Y-15840531D02*
X9456444Y-15859579D01*
X9456444Y-15859579D02*
X9465968Y-15897674D01*
X9465968Y-15897674D02*
X9465968Y-15945293D01*
X9465968Y-15945293D02*
X9456444Y-15983388D01*
X9456444Y-15983388D02*
X9446920Y-16002436D01*
X9446920Y-16002436D02*
X9437396Y-16011960D01*
X9437396Y-16011960D02*
X9418349Y-16021484D01*
X9418349Y-16021484D02*
X9399301Y-16021484D01*
X9399301Y-16021484D02*
X9380253Y-16011960D01*
X9380253Y-16011960D02*
X9370729Y-16002436D01*
X9370729Y-16002436D02*
X9361206Y-15983388D01*
X9361206Y-15983388D02*
X9351682Y-15945293D01*
X9351682Y-15945293D02*
X9351682Y-15897674D01*
X9351682Y-15897674D02*
X9361206Y-15859579D01*
X9361206Y-15859579D02*
X9370729Y-15840531D01*
X9370729Y-15840531D02*
X9380253Y-15831008D01*
X9380253Y-15831008D02*
X9399301Y-15821484D01*
X9589777Y-15821484D02*
X9608825Y-15821484D01*
X9608825Y-15821484D02*
X9627872Y-15831008D01*
X9627872Y-15831008D02*
X9637396Y-15840531D01*
X9637396Y-15840531D02*
X9646920Y-15859579D01*
X9646920Y-15859579D02*
X9656444Y-15897674D01*
X9656444Y-15897674D02*
X9656444Y-15945293D01*
X9656444Y-15945293D02*
X9646920Y-15983388D01*
X9646920Y-15983388D02*
X9637396Y-16002436D01*
X9637396Y-16002436D02*
X9627872Y-16011960D01*
X9627872Y-16011960D02*
X9608825Y-16021484D01*
X9608825Y-16021484D02*
X9589777Y-16021484D01*
X9589777Y-16021484D02*
X9570729Y-16011960D01*
X9570729Y-16011960D02*
X9561206Y-16002436D01*
X9561206Y-16002436D02*
X9551682Y-15983388D01*
X9551682Y-15983388D02*
X9542158Y-15945293D01*
X9542158Y-15945293D02*
X9542158Y-15897674D01*
X9542158Y-15897674D02*
X9551682Y-15859579D01*
X9551682Y-15859579D02*
X9561206Y-15840531D01*
X9561206Y-15840531D02*
X9570729Y-15831008D01*
X9570729Y-15831008D02*
X9589777Y-15821484D01*
X9732634Y-15821484D02*
X9732634Y-15859579D01*
X9808825Y-15821484D02*
X9808825Y-15859579D01*
X10104063Y-16097674D02*
X10094539Y-16088150D01*
X10094539Y-16088150D02*
X10075491Y-16059579D01*
X10075491Y-16059579D02*
X10065968Y-16040531D01*
X10065968Y-16040531D02*
X10056444Y-16011960D01*
X10056444Y-16011960D02*
X10046920Y-15964341D01*
X10046920Y-15964341D02*
X10046920Y-15926246D01*
X10046920Y-15926246D02*
X10056444Y-15878627D01*
X10056444Y-15878627D02*
X10065968Y-15850055D01*
X10065968Y-15850055D02*
X10075491Y-15831008D01*
X10075491Y-15831008D02*
X10094539Y-15802436D01*
X10094539Y-15802436D02*
X10104063Y-15792912D01*
X10285015Y-16021484D02*
X10170730Y-16021484D01*
X10227872Y-16021484D02*
X10227872Y-15821484D01*
X10227872Y-15821484D02*
X10208825Y-15850055D01*
X10208825Y-15850055D02*
X10189777Y-15869103D01*
X10189777Y-15869103D02*
X10170730Y-15878627D01*
X10523111Y-16021484D02*
X10523111Y-15821484D01*
X10608825Y-16021484D02*
X10608825Y-15916722D01*
X10608825Y-15916722D02*
X10599301Y-15897674D01*
X10599301Y-15897674D02*
X10580253Y-15888150D01*
X10580253Y-15888150D02*
X10551682Y-15888150D01*
X10551682Y-15888150D02*
X10532634Y-15897674D01*
X10532634Y-15897674D02*
X10523111Y-15907198D01*
X10732634Y-16021484D02*
X10713587Y-16011960D01*
X10713587Y-16011960D02*
X10704063Y-16002436D01*
X10704063Y-16002436D02*
X10694539Y-15983388D01*
X10694539Y-15983388D02*
X10694539Y-15926246D01*
X10694539Y-15926246D02*
X10704063Y-15907198D01*
X10704063Y-15907198D02*
X10713587Y-15897674D01*
X10713587Y-15897674D02*
X10732634Y-15888150D01*
X10732634Y-15888150D02*
X10761206Y-15888150D01*
X10761206Y-15888150D02*
X10780253Y-15897674D01*
X10780253Y-15897674D02*
X10789777Y-15907198D01*
X10789777Y-15907198D02*
X10799301Y-15926246D01*
X10799301Y-15926246D02*
X10799301Y-15983388D01*
X10799301Y-15983388D02*
X10789777Y-16002436D01*
X10789777Y-16002436D02*
X10780253Y-16011960D01*
X10780253Y-16011960D02*
X10761206Y-16021484D01*
X10761206Y-16021484D02*
X10732634Y-16021484D01*
X10913587Y-16021484D02*
X10894539Y-16011960D01*
X10894539Y-16011960D02*
X10885015Y-15992912D01*
X10885015Y-15992912D02*
X10885015Y-15821484D01*
X11065968Y-16011960D02*
X11046920Y-16021484D01*
X11046920Y-16021484D02*
X11008825Y-16021484D01*
X11008825Y-16021484D02*
X10989777Y-16011960D01*
X10989777Y-16011960D02*
X10980253Y-15992912D01*
X10980253Y-15992912D02*
X10980253Y-15916722D01*
X10980253Y-15916722D02*
X10989777Y-15897674D01*
X10989777Y-15897674D02*
X11008825Y-15888150D01*
X11008825Y-15888150D02*
X11046920Y-15888150D01*
X11046920Y-15888150D02*
X11065968Y-15897674D01*
X11065968Y-15897674D02*
X11075492Y-15916722D01*
X11075492Y-15916722D02*
X11075492Y-15935769D01*
X11075492Y-15935769D02*
X10980253Y-15954817D01*
X11142158Y-16097674D02*
X11151682Y-16088150D01*
X11151682Y-16088150D02*
X11170730Y-16059579D01*
X11170730Y-16059579D02*
X11180253Y-16040531D01*
X11180253Y-16040531D02*
X11189777Y-16011960D01*
X11189777Y-16011960D02*
X11199301Y-15964341D01*
X11199301Y-15964341D02*
X11199301Y-15926246D01*
X11199301Y-15926246D02*
X11189777Y-15878627D01*
X11189777Y-15878627D02*
X11180253Y-15850055D01*
X11180253Y-15850055D02*
X11170730Y-15831008D01*
X11170730Y-15831008D02*
X11151682Y-15802436D01*
X11151682Y-15802436D02*
X11142158Y-15792912D01*
D12*
X6529000Y-16194000D02*
G75*
G03*
X6529000Y-16194000I-50000J0D01*
G01*
D10*
X6894539Y-16285484D02*
X6780253Y-16285484D01*
X6837396Y-16285484D02*
X6837396Y-16085484D01*
X6837396Y-16085484D02*
X6818348Y-16114055D01*
X6818348Y-16114055D02*
X6799301Y-16133103D01*
X6799301Y-16133103D02*
X6780253Y-16142627D01*
X6980253Y-16266436D02*
X6989777Y-16275960D01*
X6989777Y-16275960D02*
X6980253Y-16285484D01*
X6980253Y-16285484D02*
X6970729Y-16275960D01*
X6970729Y-16275960D02*
X6980253Y-16266436D01*
X6980253Y-16266436D02*
X6980253Y-16285484D01*
X7113586Y-16085484D02*
X7132634Y-16085484D01*
X7132634Y-16085484D02*
X7151682Y-16095008D01*
X7151682Y-16095008D02*
X7161205Y-16104531D01*
X7161205Y-16104531D02*
X7170729Y-16123579D01*
X7170729Y-16123579D02*
X7180253Y-16161674D01*
X7180253Y-16161674D02*
X7180253Y-16209293D01*
X7180253Y-16209293D02*
X7170729Y-16247388D01*
X7170729Y-16247388D02*
X7161205Y-16266436D01*
X7161205Y-16266436D02*
X7151682Y-16275960D01*
X7151682Y-16275960D02*
X7132634Y-16285484D01*
X7132634Y-16285484D02*
X7113586Y-16285484D01*
X7113586Y-16285484D02*
X7094539Y-16275960D01*
X7094539Y-16275960D02*
X7085015Y-16266436D01*
X7085015Y-16266436D02*
X7075491Y-16247388D01*
X7075491Y-16247388D02*
X7065967Y-16209293D01*
X7065967Y-16209293D02*
X7065967Y-16161674D01*
X7065967Y-16161674D02*
X7075491Y-16123579D01*
X7075491Y-16123579D02*
X7085015Y-16104531D01*
X7085015Y-16104531D02*
X7094539Y-16095008D01*
X7094539Y-16095008D02*
X7113586Y-16085484D01*
X7304062Y-16085484D02*
X7323110Y-16085484D01*
X7323110Y-16085484D02*
X7342158Y-16095008D01*
X7342158Y-16095008D02*
X7351682Y-16104531D01*
X7351682Y-16104531D02*
X7361205Y-16123579D01*
X7361205Y-16123579D02*
X7370729Y-16161674D01*
X7370729Y-16161674D02*
X7370729Y-16209293D01*
X7370729Y-16209293D02*
X7361205Y-16247388D01*
X7361205Y-16247388D02*
X7351682Y-16266436D01*
X7351682Y-16266436D02*
X7342158Y-16275960D01*
X7342158Y-16275960D02*
X7323110Y-16285484D01*
X7323110Y-16285484D02*
X7304062Y-16285484D01*
X7304062Y-16285484D02*
X7285015Y-16275960D01*
X7285015Y-16275960D02*
X7275491Y-16266436D01*
X7275491Y-16266436D02*
X7265967Y-16247388D01*
X7265967Y-16247388D02*
X7256443Y-16209293D01*
X7256443Y-16209293D02*
X7256443Y-16161674D01*
X7256443Y-16161674D02*
X7265967Y-16123579D01*
X7265967Y-16123579D02*
X7275491Y-16104531D01*
X7275491Y-16104531D02*
X7285015Y-16095008D01*
X7285015Y-16095008D02*
X7304062Y-16085484D01*
X7494539Y-16085484D02*
X7513586Y-16085484D01*
X7513586Y-16085484D02*
X7532634Y-16095008D01*
X7532634Y-16095008D02*
X7542158Y-16104531D01*
X7542158Y-16104531D02*
X7551682Y-16123579D01*
X7551682Y-16123579D02*
X7561205Y-16161674D01*
X7561205Y-16161674D02*
X7561205Y-16209293D01*
X7561205Y-16209293D02*
X7551682Y-16247388D01*
X7551682Y-16247388D02*
X7542158Y-16266436D01*
X7542158Y-16266436D02*
X7532634Y-16275960D01*
X7532634Y-16275960D02*
X7513586Y-16285484D01*
X7513586Y-16285484D02*
X7494539Y-16285484D01*
X7494539Y-16285484D02*
X7475491Y-16275960D01*
X7475491Y-16275960D02*
X7465967Y-16266436D01*
X7465967Y-16266436D02*
X7456443Y-16247388D01*
X7456443Y-16247388D02*
X7446920Y-16209293D01*
X7446920Y-16209293D02*
X7446920Y-16161674D01*
X7446920Y-16161674D02*
X7456443Y-16123579D01*
X7456443Y-16123579D02*
X7465967Y-16104531D01*
X7465967Y-16104531D02*
X7475491Y-16095008D01*
X7475491Y-16095008D02*
X7494539Y-16085484D01*
X7646920Y-16285484D02*
X7646920Y-16152150D01*
X7646920Y-16171198D02*
X7656443Y-16161674D01*
X7656443Y-16161674D02*
X7675491Y-16152150D01*
X7675491Y-16152150D02*
X7704063Y-16152150D01*
X7704063Y-16152150D02*
X7723110Y-16161674D01*
X7723110Y-16161674D02*
X7732634Y-16180722D01*
X7732634Y-16180722D02*
X7732634Y-16285484D01*
X7732634Y-16180722D02*
X7742158Y-16161674D01*
X7742158Y-16161674D02*
X7761205Y-16152150D01*
X7761205Y-16152150D02*
X7789777Y-16152150D01*
X7789777Y-16152150D02*
X7808824Y-16161674D01*
X7808824Y-16161674D02*
X7818348Y-16180722D01*
X7818348Y-16180722D02*
X7818348Y-16285484D01*
X7913586Y-16285484D02*
X7913586Y-16152150D01*
X7913586Y-16171198D02*
X7923110Y-16161674D01*
X7923110Y-16161674D02*
X7942158Y-16152150D01*
X7942158Y-16152150D02*
X7970729Y-16152150D01*
X7970729Y-16152150D02*
X7989777Y-16161674D01*
X7989777Y-16161674D02*
X7999301Y-16180722D01*
X7999301Y-16180722D02*
X7999301Y-16285484D01*
X7999301Y-16180722D02*
X8008824Y-16161674D01*
X8008824Y-16161674D02*
X8027872Y-16152150D01*
X8027872Y-16152150D02*
X8056443Y-16152150D01*
X8056443Y-16152150D02*
X8075491Y-16161674D01*
X8075491Y-16161674D02*
X8085015Y-16180722D01*
X8085015Y-16180722D02*
X8085015Y-16285484D01*
X8475491Y-16075960D02*
X8304063Y-16333103D01*
X8732634Y-16085484D02*
X8751682Y-16085484D01*
X8751682Y-16085484D02*
X8770729Y-16095008D01*
X8770729Y-16095008D02*
X8780253Y-16104531D01*
X8780253Y-16104531D02*
X8789777Y-16123579D01*
X8789777Y-16123579D02*
X8799301Y-16161674D01*
X8799301Y-16161674D02*
X8799301Y-16209293D01*
X8799301Y-16209293D02*
X8789777Y-16247388D01*
X8789777Y-16247388D02*
X8780253Y-16266436D01*
X8780253Y-16266436D02*
X8770729Y-16275960D01*
X8770729Y-16275960D02*
X8751682Y-16285484D01*
X8751682Y-16285484D02*
X8732634Y-16285484D01*
X8732634Y-16285484D02*
X8713587Y-16275960D01*
X8713587Y-16275960D02*
X8704063Y-16266436D01*
X8704063Y-16266436D02*
X8694539Y-16247388D01*
X8694539Y-16247388D02*
X8685015Y-16209293D01*
X8685015Y-16209293D02*
X8685015Y-16161674D01*
X8685015Y-16161674D02*
X8694539Y-16123579D01*
X8694539Y-16123579D02*
X8704063Y-16104531D01*
X8704063Y-16104531D02*
X8713587Y-16095008D01*
X8713587Y-16095008D02*
X8732634Y-16085484D01*
X8885015Y-16266436D02*
X8894539Y-16275960D01*
X8894539Y-16275960D02*
X8885015Y-16285484D01*
X8885015Y-16285484D02*
X8875491Y-16275960D01*
X8875491Y-16275960D02*
X8885015Y-16266436D01*
X8885015Y-16266436D02*
X8885015Y-16285484D01*
X9018348Y-16085484D02*
X9037396Y-16085484D01*
X9037396Y-16085484D02*
X9056444Y-16095008D01*
X9056444Y-16095008D02*
X9065968Y-16104531D01*
X9065968Y-16104531D02*
X9075491Y-16123579D01*
X9075491Y-16123579D02*
X9085015Y-16161674D01*
X9085015Y-16161674D02*
X9085015Y-16209293D01*
X9085015Y-16209293D02*
X9075491Y-16247388D01*
X9075491Y-16247388D02*
X9065968Y-16266436D01*
X9065968Y-16266436D02*
X9056444Y-16275960D01*
X9056444Y-16275960D02*
X9037396Y-16285484D01*
X9037396Y-16285484D02*
X9018348Y-16285484D01*
X9018348Y-16285484D02*
X8999301Y-16275960D01*
X8999301Y-16275960D02*
X8989777Y-16266436D01*
X8989777Y-16266436D02*
X8980253Y-16247388D01*
X8980253Y-16247388D02*
X8970729Y-16209293D01*
X8970729Y-16209293D02*
X8970729Y-16161674D01*
X8970729Y-16161674D02*
X8980253Y-16123579D01*
X8980253Y-16123579D02*
X8989777Y-16104531D01*
X8989777Y-16104531D02*
X8999301Y-16095008D01*
X8999301Y-16095008D02*
X9018348Y-16085484D01*
X9151682Y-16085484D02*
X9275491Y-16085484D01*
X9275491Y-16085484D02*
X9208825Y-16161674D01*
X9208825Y-16161674D02*
X9237396Y-16161674D01*
X9237396Y-16161674D02*
X9256444Y-16171198D01*
X9256444Y-16171198D02*
X9265968Y-16180722D01*
X9265968Y-16180722D02*
X9275491Y-16199769D01*
X9275491Y-16199769D02*
X9275491Y-16247388D01*
X9275491Y-16247388D02*
X9265968Y-16266436D01*
X9265968Y-16266436D02*
X9256444Y-16275960D01*
X9256444Y-16275960D02*
X9237396Y-16285484D01*
X9237396Y-16285484D02*
X9180253Y-16285484D01*
X9180253Y-16285484D02*
X9161206Y-16275960D01*
X9161206Y-16275960D02*
X9151682Y-16266436D01*
X9370729Y-16285484D02*
X9408825Y-16285484D01*
X9408825Y-16285484D02*
X9427872Y-16275960D01*
X9427872Y-16275960D02*
X9437396Y-16266436D01*
X9437396Y-16266436D02*
X9456444Y-16237865D01*
X9456444Y-16237865D02*
X9465968Y-16199769D01*
X9465968Y-16199769D02*
X9465968Y-16123579D01*
X9465968Y-16123579D02*
X9456444Y-16104531D01*
X9456444Y-16104531D02*
X9446920Y-16095008D01*
X9446920Y-16095008D02*
X9427872Y-16085484D01*
X9427872Y-16085484D02*
X9389777Y-16085484D01*
X9389777Y-16085484D02*
X9370729Y-16095008D01*
X9370729Y-16095008D02*
X9361206Y-16104531D01*
X9361206Y-16104531D02*
X9351682Y-16123579D01*
X9351682Y-16123579D02*
X9351682Y-16171198D01*
X9351682Y-16171198D02*
X9361206Y-16190246D01*
X9361206Y-16190246D02*
X9370729Y-16199769D01*
X9370729Y-16199769D02*
X9389777Y-16209293D01*
X9389777Y-16209293D02*
X9427872Y-16209293D01*
X9427872Y-16209293D02*
X9446920Y-16199769D01*
X9446920Y-16199769D02*
X9456444Y-16190246D01*
X9456444Y-16190246D02*
X9465968Y-16171198D01*
X9637396Y-16152150D02*
X9637396Y-16285484D01*
X9589777Y-16075960D02*
X9542158Y-16218817D01*
X9542158Y-16218817D02*
X9665968Y-16218817D01*
X9732634Y-16085484D02*
X9732634Y-16123579D01*
X9808825Y-16085484D02*
X9808825Y-16123579D01*
X10104063Y-16361674D02*
X10094539Y-16352150D01*
X10094539Y-16352150D02*
X10075491Y-16323579D01*
X10075491Y-16323579D02*
X10065968Y-16304531D01*
X10065968Y-16304531D02*
X10056444Y-16275960D01*
X10056444Y-16275960D02*
X10046920Y-16228341D01*
X10046920Y-16228341D02*
X10046920Y-16190246D01*
X10046920Y-16190246D02*
X10056444Y-16142627D01*
X10056444Y-16142627D02*
X10065968Y-16114055D01*
X10065968Y-16114055D02*
X10075491Y-16095008D01*
X10075491Y-16095008D02*
X10094539Y-16066436D01*
X10094539Y-16066436D02*
X10104063Y-16056912D01*
X10285015Y-16285484D02*
X10170730Y-16285484D01*
X10227872Y-16285484D02*
X10227872Y-16085484D01*
X10227872Y-16085484D02*
X10208825Y-16114055D01*
X10208825Y-16114055D02*
X10189777Y-16133103D01*
X10189777Y-16133103D02*
X10170730Y-16142627D01*
X10351682Y-16085484D02*
X10485015Y-16085484D01*
X10485015Y-16085484D02*
X10399301Y-16285484D01*
X10646920Y-16152150D02*
X10646920Y-16285484D01*
X10599301Y-16075960D02*
X10551682Y-16218817D01*
X10551682Y-16218817D02*
X10675491Y-16218817D01*
X10904063Y-16285484D02*
X10904063Y-16085484D01*
X10989777Y-16285484D02*
X10989777Y-16180722D01*
X10989777Y-16180722D02*
X10980253Y-16161674D01*
X10980253Y-16161674D02*
X10961206Y-16152150D01*
X10961206Y-16152150D02*
X10932634Y-16152150D01*
X10932634Y-16152150D02*
X10913587Y-16161674D01*
X10913587Y-16161674D02*
X10904063Y-16171198D01*
X11113587Y-16285484D02*
X11094539Y-16275960D01*
X11094539Y-16275960D02*
X11085015Y-16266436D01*
X11085015Y-16266436D02*
X11075492Y-16247388D01*
X11075492Y-16247388D02*
X11075492Y-16190246D01*
X11075492Y-16190246D02*
X11085015Y-16171198D01*
X11085015Y-16171198D02*
X11094539Y-16161674D01*
X11094539Y-16161674D02*
X11113587Y-16152150D01*
X11113587Y-16152150D02*
X11142158Y-16152150D01*
X11142158Y-16152150D02*
X11161206Y-16161674D01*
X11161206Y-16161674D02*
X11170730Y-16171198D01*
X11170730Y-16171198D02*
X11180253Y-16190246D01*
X11180253Y-16190246D02*
X11180253Y-16247388D01*
X11180253Y-16247388D02*
X11170730Y-16266436D01*
X11170730Y-16266436D02*
X11161206Y-16275960D01*
X11161206Y-16275960D02*
X11142158Y-16285484D01*
X11142158Y-16285484D02*
X11113587Y-16285484D01*
X11294539Y-16285484D02*
X11275491Y-16275960D01*
X11275491Y-16275960D02*
X11265968Y-16256912D01*
X11265968Y-16256912D02*
X11265968Y-16085484D01*
X11446920Y-16275960D02*
X11427872Y-16285484D01*
X11427872Y-16285484D02*
X11389777Y-16285484D01*
X11389777Y-16285484D02*
X11370730Y-16275960D01*
X11370730Y-16275960D02*
X11361206Y-16256912D01*
X11361206Y-16256912D02*
X11361206Y-16180722D01*
X11361206Y-16180722D02*
X11370730Y-16161674D01*
X11370730Y-16161674D02*
X11389777Y-16152150D01*
X11389777Y-16152150D02*
X11427872Y-16152150D01*
X11427872Y-16152150D02*
X11446920Y-16161674D01*
X11446920Y-16161674D02*
X11456444Y-16180722D01*
X11456444Y-16180722D02*
X11456444Y-16199769D01*
X11456444Y-16199769D02*
X11361206Y-16218817D01*
X11532634Y-16275960D02*
X11551682Y-16285484D01*
X11551682Y-16285484D02*
X11589777Y-16285484D01*
X11589777Y-16285484D02*
X11608825Y-16275960D01*
X11608825Y-16275960D02*
X11618349Y-16256912D01*
X11618349Y-16256912D02*
X11618349Y-16247388D01*
X11618349Y-16247388D02*
X11608825Y-16228341D01*
X11608825Y-16228341D02*
X11589777Y-16218817D01*
X11589777Y-16218817D02*
X11561206Y-16218817D01*
X11561206Y-16218817D02*
X11542158Y-16209293D01*
X11542158Y-16209293D02*
X11532634Y-16190246D01*
X11532634Y-16190246D02*
X11532634Y-16180722D01*
X11532634Y-16180722D02*
X11542158Y-16161674D01*
X11542158Y-16161674D02*
X11561206Y-16152150D01*
X11561206Y-16152150D02*
X11589777Y-16152150D01*
X11589777Y-16152150D02*
X11608825Y-16161674D01*
X11685015Y-16361674D02*
X11694539Y-16352150D01*
X11694539Y-16352150D02*
X11713587Y-16323579D01*
X11713587Y-16323579D02*
X11723111Y-16304531D01*
X11723111Y-16304531D02*
X11732634Y-16275960D01*
X11732634Y-16275960D02*
X11742158Y-16228341D01*
X11742158Y-16228341D02*
X11742158Y-16190246D01*
X11742158Y-16190246D02*
X11732634Y-16142627D01*
X11732634Y-16142627D02*
X11723111Y-16114055D01*
X11723111Y-16114055D02*
X11713587Y-16095008D01*
X11713587Y-16095008D02*
X11694539Y-16066436D01*
X11694539Y-16066436D02*
X11685015Y-16056912D01*
D13*
X6477000Y-16406000D02*
X6477000Y-16510000D01*
X6425000Y-16458000D02*
X6529000Y-16458000D01*
D10*
X6894539Y-16549484D02*
X6780253Y-16549484D01*
X6837396Y-16549484D02*
X6837396Y-16349484D01*
X6837396Y-16349484D02*
X6818348Y-16378055D01*
X6818348Y-16378055D02*
X6799301Y-16397103D01*
X6799301Y-16397103D02*
X6780253Y-16406627D01*
X6980253Y-16530436D02*
X6989777Y-16539960D01*
X6989777Y-16539960D02*
X6980253Y-16549484D01*
X6980253Y-16549484D02*
X6970729Y-16539960D01*
X6970729Y-16539960D02*
X6980253Y-16530436D01*
X6980253Y-16530436D02*
X6980253Y-16549484D01*
X7113586Y-16349484D02*
X7132634Y-16349484D01*
X7132634Y-16349484D02*
X7151682Y-16359008D01*
X7151682Y-16359008D02*
X7161205Y-16368531D01*
X7161205Y-16368531D02*
X7170729Y-16387579D01*
X7170729Y-16387579D02*
X7180253Y-16425674D01*
X7180253Y-16425674D02*
X7180253Y-16473293D01*
X7180253Y-16473293D02*
X7170729Y-16511388D01*
X7170729Y-16511388D02*
X7161205Y-16530436D01*
X7161205Y-16530436D02*
X7151682Y-16539960D01*
X7151682Y-16539960D02*
X7132634Y-16549484D01*
X7132634Y-16549484D02*
X7113586Y-16549484D01*
X7113586Y-16549484D02*
X7094539Y-16539960D01*
X7094539Y-16539960D02*
X7085015Y-16530436D01*
X7085015Y-16530436D02*
X7075491Y-16511388D01*
X7075491Y-16511388D02*
X7065967Y-16473293D01*
X7065967Y-16473293D02*
X7065967Y-16425674D01*
X7065967Y-16425674D02*
X7075491Y-16387579D01*
X7075491Y-16387579D02*
X7085015Y-16368531D01*
X7085015Y-16368531D02*
X7094539Y-16359008D01*
X7094539Y-16359008D02*
X7113586Y-16349484D01*
X7351682Y-16416150D02*
X7351682Y-16549484D01*
X7304062Y-16339960D02*
X7256443Y-16482817D01*
X7256443Y-16482817D02*
X7380253Y-16482817D01*
X7494539Y-16349484D02*
X7513586Y-16349484D01*
X7513586Y-16349484D02*
X7532634Y-16359008D01*
X7532634Y-16359008D02*
X7542158Y-16368531D01*
X7542158Y-16368531D02*
X7551682Y-16387579D01*
X7551682Y-16387579D02*
X7561205Y-16425674D01*
X7561205Y-16425674D02*
X7561205Y-16473293D01*
X7561205Y-16473293D02*
X7551682Y-16511388D01*
X7551682Y-16511388D02*
X7542158Y-16530436D01*
X7542158Y-16530436D02*
X7532634Y-16539960D01*
X7532634Y-16539960D02*
X7513586Y-16549484D01*
X7513586Y-16549484D02*
X7494539Y-16549484D01*
X7494539Y-16549484D02*
X7475491Y-16539960D01*
X7475491Y-16539960D02*
X7465967Y-16530436D01*
X7465967Y-16530436D02*
X7456443Y-16511388D01*
X7456443Y-16511388D02*
X7446920Y-16473293D01*
X7446920Y-16473293D02*
X7446920Y-16425674D01*
X7446920Y-16425674D02*
X7456443Y-16387579D01*
X7456443Y-16387579D02*
X7465967Y-16368531D01*
X7465967Y-16368531D02*
X7475491Y-16359008D01*
X7475491Y-16359008D02*
X7494539Y-16349484D01*
X7646920Y-16549484D02*
X7646920Y-16416150D01*
X7646920Y-16435198D02*
X7656443Y-16425674D01*
X7656443Y-16425674D02*
X7675491Y-16416150D01*
X7675491Y-16416150D02*
X7704063Y-16416150D01*
X7704063Y-16416150D02*
X7723110Y-16425674D01*
X7723110Y-16425674D02*
X7732634Y-16444722D01*
X7732634Y-16444722D02*
X7732634Y-16549484D01*
X7732634Y-16444722D02*
X7742158Y-16425674D01*
X7742158Y-16425674D02*
X7761205Y-16416150D01*
X7761205Y-16416150D02*
X7789777Y-16416150D01*
X7789777Y-16416150D02*
X7808824Y-16425674D01*
X7808824Y-16425674D02*
X7818348Y-16444722D01*
X7818348Y-16444722D02*
X7818348Y-16549484D01*
X7913586Y-16549484D02*
X7913586Y-16416150D01*
X7913586Y-16435198D02*
X7923110Y-16425674D01*
X7923110Y-16425674D02*
X7942158Y-16416150D01*
X7942158Y-16416150D02*
X7970729Y-16416150D01*
X7970729Y-16416150D02*
X7989777Y-16425674D01*
X7989777Y-16425674D02*
X7999301Y-16444722D01*
X7999301Y-16444722D02*
X7999301Y-16549484D01*
X7999301Y-16444722D02*
X8008824Y-16425674D01*
X8008824Y-16425674D02*
X8027872Y-16416150D01*
X8027872Y-16416150D02*
X8056443Y-16416150D01*
X8056443Y-16416150D02*
X8075491Y-16425674D01*
X8075491Y-16425674D02*
X8085015Y-16444722D01*
X8085015Y-16444722D02*
X8085015Y-16549484D01*
X8475491Y-16339960D02*
X8304063Y-16597103D01*
X8732634Y-16349484D02*
X8751682Y-16349484D01*
X8751682Y-16349484D02*
X8770729Y-16359008D01*
X8770729Y-16359008D02*
X8780253Y-16368531D01*
X8780253Y-16368531D02*
X8789777Y-16387579D01*
X8789777Y-16387579D02*
X8799301Y-16425674D01*
X8799301Y-16425674D02*
X8799301Y-16473293D01*
X8799301Y-16473293D02*
X8789777Y-16511388D01*
X8789777Y-16511388D02*
X8780253Y-16530436D01*
X8780253Y-16530436D02*
X8770729Y-16539960D01*
X8770729Y-16539960D02*
X8751682Y-16549484D01*
X8751682Y-16549484D02*
X8732634Y-16549484D01*
X8732634Y-16549484D02*
X8713587Y-16539960D01*
X8713587Y-16539960D02*
X8704063Y-16530436D01*
X8704063Y-16530436D02*
X8694539Y-16511388D01*
X8694539Y-16511388D02*
X8685015Y-16473293D01*
X8685015Y-16473293D02*
X8685015Y-16425674D01*
X8685015Y-16425674D02*
X8694539Y-16387579D01*
X8694539Y-16387579D02*
X8704063Y-16368531D01*
X8704063Y-16368531D02*
X8713587Y-16359008D01*
X8713587Y-16359008D02*
X8732634Y-16349484D01*
X8885015Y-16530436D02*
X8894539Y-16539960D01*
X8894539Y-16539960D02*
X8885015Y-16549484D01*
X8885015Y-16549484D02*
X8875491Y-16539960D01*
X8875491Y-16539960D02*
X8885015Y-16530436D01*
X8885015Y-16530436D02*
X8885015Y-16549484D01*
X9018348Y-16349484D02*
X9037396Y-16349484D01*
X9037396Y-16349484D02*
X9056444Y-16359008D01*
X9056444Y-16359008D02*
X9065968Y-16368531D01*
X9065968Y-16368531D02*
X9075491Y-16387579D01*
X9075491Y-16387579D02*
X9085015Y-16425674D01*
X9085015Y-16425674D02*
X9085015Y-16473293D01*
X9085015Y-16473293D02*
X9075491Y-16511388D01*
X9075491Y-16511388D02*
X9065968Y-16530436D01*
X9065968Y-16530436D02*
X9056444Y-16539960D01*
X9056444Y-16539960D02*
X9037396Y-16549484D01*
X9037396Y-16549484D02*
X9018348Y-16549484D01*
X9018348Y-16549484D02*
X8999301Y-16539960D01*
X8999301Y-16539960D02*
X8989777Y-16530436D01*
X8989777Y-16530436D02*
X8980253Y-16511388D01*
X8980253Y-16511388D02*
X8970729Y-16473293D01*
X8970729Y-16473293D02*
X8970729Y-16425674D01*
X8970729Y-16425674D02*
X8980253Y-16387579D01*
X8980253Y-16387579D02*
X8989777Y-16368531D01*
X8989777Y-16368531D02*
X8999301Y-16359008D01*
X8999301Y-16359008D02*
X9018348Y-16349484D01*
X9256444Y-16416150D02*
X9256444Y-16549484D01*
X9208825Y-16339960D02*
X9161206Y-16482817D01*
X9161206Y-16482817D02*
X9285015Y-16482817D01*
X9399301Y-16349484D02*
X9418349Y-16349484D01*
X9418349Y-16349484D02*
X9437396Y-16359008D01*
X9437396Y-16359008D02*
X9446920Y-16368531D01*
X9446920Y-16368531D02*
X9456444Y-16387579D01*
X9456444Y-16387579D02*
X9465968Y-16425674D01*
X9465968Y-16425674D02*
X9465968Y-16473293D01*
X9465968Y-16473293D02*
X9456444Y-16511388D01*
X9456444Y-16511388D02*
X9446920Y-16530436D01*
X9446920Y-16530436D02*
X9437396Y-16539960D01*
X9437396Y-16539960D02*
X9418349Y-16549484D01*
X9418349Y-16549484D02*
X9399301Y-16549484D01*
X9399301Y-16549484D02*
X9380253Y-16539960D01*
X9380253Y-16539960D02*
X9370729Y-16530436D01*
X9370729Y-16530436D02*
X9361206Y-16511388D01*
X9361206Y-16511388D02*
X9351682Y-16473293D01*
X9351682Y-16473293D02*
X9351682Y-16425674D01*
X9351682Y-16425674D02*
X9361206Y-16387579D01*
X9361206Y-16387579D02*
X9370729Y-16368531D01*
X9370729Y-16368531D02*
X9380253Y-16359008D01*
X9380253Y-16359008D02*
X9399301Y-16349484D01*
X9561206Y-16549484D02*
X9599301Y-16549484D01*
X9599301Y-16549484D02*
X9618349Y-16539960D01*
X9618349Y-16539960D02*
X9627872Y-16530436D01*
X9627872Y-16530436D02*
X9646920Y-16501865D01*
X9646920Y-16501865D02*
X9656444Y-16463769D01*
X9656444Y-16463769D02*
X9656444Y-16387579D01*
X9656444Y-16387579D02*
X9646920Y-16368531D01*
X9646920Y-16368531D02*
X9637396Y-16359008D01*
X9637396Y-16359008D02*
X9618349Y-16349484D01*
X9618349Y-16349484D02*
X9580253Y-16349484D01*
X9580253Y-16349484D02*
X9561206Y-16359008D01*
X9561206Y-16359008D02*
X9551682Y-16368531D01*
X9551682Y-16368531D02*
X9542158Y-16387579D01*
X9542158Y-16387579D02*
X9542158Y-16435198D01*
X9542158Y-16435198D02*
X9551682Y-16454246D01*
X9551682Y-16454246D02*
X9561206Y-16463769D01*
X9561206Y-16463769D02*
X9580253Y-16473293D01*
X9580253Y-16473293D02*
X9618349Y-16473293D01*
X9618349Y-16473293D02*
X9637396Y-16463769D01*
X9637396Y-16463769D02*
X9646920Y-16454246D01*
X9646920Y-16454246D02*
X9656444Y-16435198D01*
X9732634Y-16349484D02*
X9732634Y-16387579D01*
X9808825Y-16349484D02*
X9808825Y-16387579D01*
X10104063Y-16625674D02*
X10094539Y-16616150D01*
X10094539Y-16616150D02*
X10075491Y-16587579D01*
X10075491Y-16587579D02*
X10065968Y-16568531D01*
X10065968Y-16568531D02*
X10056444Y-16539960D01*
X10056444Y-16539960D02*
X10046920Y-16492341D01*
X10046920Y-16492341D02*
X10046920Y-16454246D01*
X10046920Y-16454246D02*
X10056444Y-16406627D01*
X10056444Y-16406627D02*
X10065968Y-16378055D01*
X10065968Y-16378055D02*
X10075491Y-16359008D01*
X10075491Y-16359008D02*
X10094539Y-16330436D01*
X10094539Y-16330436D02*
X10104063Y-16320912D01*
X10285015Y-16549484D02*
X10170730Y-16549484D01*
X10227872Y-16549484D02*
X10227872Y-16349484D01*
X10227872Y-16349484D02*
X10208825Y-16378055D01*
X10208825Y-16378055D02*
X10189777Y-16397103D01*
X10189777Y-16397103D02*
X10170730Y-16406627D01*
X10523111Y-16549484D02*
X10523111Y-16349484D01*
X10608825Y-16549484D02*
X10608825Y-16444722D01*
X10608825Y-16444722D02*
X10599301Y-16425674D01*
X10599301Y-16425674D02*
X10580253Y-16416150D01*
X10580253Y-16416150D02*
X10551682Y-16416150D01*
X10551682Y-16416150D02*
X10532634Y-16425674D01*
X10532634Y-16425674D02*
X10523111Y-16435198D01*
X10732634Y-16549484D02*
X10713587Y-16539960D01*
X10713587Y-16539960D02*
X10704063Y-16530436D01*
X10704063Y-16530436D02*
X10694539Y-16511388D01*
X10694539Y-16511388D02*
X10694539Y-16454246D01*
X10694539Y-16454246D02*
X10704063Y-16435198D01*
X10704063Y-16435198D02*
X10713587Y-16425674D01*
X10713587Y-16425674D02*
X10732634Y-16416150D01*
X10732634Y-16416150D02*
X10761206Y-16416150D01*
X10761206Y-16416150D02*
X10780253Y-16425674D01*
X10780253Y-16425674D02*
X10789777Y-16435198D01*
X10789777Y-16435198D02*
X10799301Y-16454246D01*
X10799301Y-16454246D02*
X10799301Y-16511388D01*
X10799301Y-16511388D02*
X10789777Y-16530436D01*
X10789777Y-16530436D02*
X10780253Y-16539960D01*
X10780253Y-16539960D02*
X10761206Y-16549484D01*
X10761206Y-16549484D02*
X10732634Y-16549484D01*
X10913587Y-16549484D02*
X10894539Y-16539960D01*
X10894539Y-16539960D02*
X10885015Y-16520912D01*
X10885015Y-16520912D02*
X10885015Y-16349484D01*
X11065968Y-16539960D02*
X11046920Y-16549484D01*
X11046920Y-16549484D02*
X11008825Y-16549484D01*
X11008825Y-16549484D02*
X10989777Y-16539960D01*
X10989777Y-16539960D02*
X10980253Y-16520912D01*
X10980253Y-16520912D02*
X10980253Y-16444722D01*
X10980253Y-16444722D02*
X10989777Y-16425674D01*
X10989777Y-16425674D02*
X11008825Y-16416150D01*
X11008825Y-16416150D02*
X11046920Y-16416150D01*
X11046920Y-16416150D02*
X11065968Y-16425674D01*
X11065968Y-16425674D02*
X11075492Y-16444722D01*
X11075492Y-16444722D02*
X11075492Y-16463769D01*
X11075492Y-16463769D02*
X10980253Y-16482817D01*
X11142158Y-16625674D02*
X11151682Y-16616150D01*
X11151682Y-16616150D02*
X11170730Y-16587579D01*
X11170730Y-16587579D02*
X11180253Y-16568531D01*
X11180253Y-16568531D02*
X11189777Y-16539960D01*
X11189777Y-16539960D02*
X11199301Y-16492341D01*
X11199301Y-16492341D02*
X11199301Y-16454246D01*
X11199301Y-16454246D02*
X11189777Y-16406627D01*
X11189777Y-16406627D02*
X11180253Y-16378055D01*
X11180253Y-16378055D02*
X11170730Y-16359008D01*
X11170730Y-16359008D02*
X11151682Y-16330436D01*
X11151682Y-16330436D02*
X11142158Y-16320912D01*
D14*
X6511427Y-16764427D02*
X6511427Y-16679573D01*
X6426573Y-16679573D01*
X6426573Y-16764427D01*
X6511427Y-16764427D01*
D10*
X6894539Y-16813484D02*
X6780253Y-16813484D01*
X6837396Y-16813484D02*
X6837396Y-16613484D01*
X6837396Y-16613484D02*
X6818348Y-16642055D01*
X6818348Y-16642055D02*
X6799301Y-16661103D01*
X6799301Y-16661103D02*
X6780253Y-16670627D01*
X6980253Y-16794436D02*
X6989777Y-16803960D01*
X6989777Y-16803960D02*
X6980253Y-16813484D01*
X6980253Y-16813484D02*
X6970729Y-16803960D01*
X6970729Y-16803960D02*
X6980253Y-16794436D01*
X6980253Y-16794436D02*
X6980253Y-16813484D01*
X7065967Y-16632531D02*
X7075491Y-16623008D01*
X7075491Y-16623008D02*
X7094539Y-16613484D01*
X7094539Y-16613484D02*
X7142158Y-16613484D01*
X7142158Y-16613484D02*
X7161205Y-16623008D01*
X7161205Y-16623008D02*
X7170729Y-16632531D01*
X7170729Y-16632531D02*
X7180253Y-16651579D01*
X7180253Y-16651579D02*
X7180253Y-16670627D01*
X7180253Y-16670627D02*
X7170729Y-16699198D01*
X7170729Y-16699198D02*
X7056443Y-16813484D01*
X7056443Y-16813484D02*
X7180253Y-16813484D01*
X7304062Y-16613484D02*
X7323110Y-16613484D01*
X7323110Y-16613484D02*
X7342158Y-16623008D01*
X7342158Y-16623008D02*
X7351682Y-16632531D01*
X7351682Y-16632531D02*
X7361205Y-16651579D01*
X7361205Y-16651579D02*
X7370729Y-16689674D01*
X7370729Y-16689674D02*
X7370729Y-16737293D01*
X7370729Y-16737293D02*
X7361205Y-16775388D01*
X7361205Y-16775388D02*
X7351682Y-16794436D01*
X7351682Y-16794436D02*
X7342158Y-16803960D01*
X7342158Y-16803960D02*
X7323110Y-16813484D01*
X7323110Y-16813484D02*
X7304062Y-16813484D01*
X7304062Y-16813484D02*
X7285015Y-16803960D01*
X7285015Y-16803960D02*
X7275491Y-16794436D01*
X7275491Y-16794436D02*
X7265967Y-16775388D01*
X7265967Y-16775388D02*
X7256443Y-16737293D01*
X7256443Y-16737293D02*
X7256443Y-16689674D01*
X7256443Y-16689674D02*
X7265967Y-16651579D01*
X7265967Y-16651579D02*
X7275491Y-16632531D01*
X7275491Y-16632531D02*
X7285015Y-16623008D01*
X7285015Y-16623008D02*
X7304062Y-16613484D01*
X7494539Y-16613484D02*
X7513586Y-16613484D01*
X7513586Y-16613484D02*
X7532634Y-16623008D01*
X7532634Y-16623008D02*
X7542158Y-16632531D01*
X7542158Y-16632531D02*
X7551682Y-16651579D01*
X7551682Y-16651579D02*
X7561205Y-16689674D01*
X7561205Y-16689674D02*
X7561205Y-16737293D01*
X7561205Y-16737293D02*
X7551682Y-16775388D01*
X7551682Y-16775388D02*
X7542158Y-16794436D01*
X7542158Y-16794436D02*
X7532634Y-16803960D01*
X7532634Y-16803960D02*
X7513586Y-16813484D01*
X7513586Y-16813484D02*
X7494539Y-16813484D01*
X7494539Y-16813484D02*
X7475491Y-16803960D01*
X7475491Y-16803960D02*
X7465967Y-16794436D01*
X7465967Y-16794436D02*
X7456443Y-16775388D01*
X7456443Y-16775388D02*
X7446920Y-16737293D01*
X7446920Y-16737293D02*
X7446920Y-16689674D01*
X7446920Y-16689674D02*
X7456443Y-16651579D01*
X7456443Y-16651579D02*
X7465967Y-16632531D01*
X7465967Y-16632531D02*
X7475491Y-16623008D01*
X7475491Y-16623008D02*
X7494539Y-16613484D01*
X7646920Y-16813484D02*
X7646920Y-16680150D01*
X7646920Y-16699198D02*
X7656443Y-16689674D01*
X7656443Y-16689674D02*
X7675491Y-16680150D01*
X7675491Y-16680150D02*
X7704063Y-16680150D01*
X7704063Y-16680150D02*
X7723110Y-16689674D01*
X7723110Y-16689674D02*
X7732634Y-16708722D01*
X7732634Y-16708722D02*
X7732634Y-16813484D01*
X7732634Y-16708722D02*
X7742158Y-16689674D01*
X7742158Y-16689674D02*
X7761205Y-16680150D01*
X7761205Y-16680150D02*
X7789777Y-16680150D01*
X7789777Y-16680150D02*
X7808824Y-16689674D01*
X7808824Y-16689674D02*
X7818348Y-16708722D01*
X7818348Y-16708722D02*
X7818348Y-16813484D01*
X7913586Y-16813484D02*
X7913586Y-16680150D01*
X7913586Y-16699198D02*
X7923110Y-16689674D01*
X7923110Y-16689674D02*
X7942158Y-16680150D01*
X7942158Y-16680150D02*
X7970729Y-16680150D01*
X7970729Y-16680150D02*
X7989777Y-16689674D01*
X7989777Y-16689674D02*
X7999301Y-16708722D01*
X7999301Y-16708722D02*
X7999301Y-16813484D01*
X7999301Y-16708722D02*
X8008824Y-16689674D01*
X8008824Y-16689674D02*
X8027872Y-16680150D01*
X8027872Y-16680150D02*
X8056443Y-16680150D01*
X8056443Y-16680150D02*
X8075491Y-16689674D01*
X8075491Y-16689674D02*
X8085015Y-16708722D01*
X8085015Y-16708722D02*
X8085015Y-16813484D01*
X8475491Y-16603960D02*
X8304063Y-16861103D01*
X8732634Y-16613484D02*
X8751682Y-16613484D01*
X8751682Y-16613484D02*
X8770729Y-16623008D01*
X8770729Y-16623008D02*
X8780253Y-16632531D01*
X8780253Y-16632531D02*
X8789777Y-16651579D01*
X8789777Y-16651579D02*
X8799301Y-16689674D01*
X8799301Y-16689674D02*
X8799301Y-16737293D01*
X8799301Y-16737293D02*
X8789777Y-16775388D01*
X8789777Y-16775388D02*
X8780253Y-16794436D01*
X8780253Y-16794436D02*
X8770729Y-16803960D01*
X8770729Y-16803960D02*
X8751682Y-16813484D01*
X8751682Y-16813484D02*
X8732634Y-16813484D01*
X8732634Y-16813484D02*
X8713587Y-16803960D01*
X8713587Y-16803960D02*
X8704063Y-16794436D01*
X8704063Y-16794436D02*
X8694539Y-16775388D01*
X8694539Y-16775388D02*
X8685015Y-16737293D01*
X8685015Y-16737293D02*
X8685015Y-16689674D01*
X8685015Y-16689674D02*
X8694539Y-16651579D01*
X8694539Y-16651579D02*
X8704063Y-16632531D01*
X8704063Y-16632531D02*
X8713587Y-16623008D01*
X8713587Y-16623008D02*
X8732634Y-16613484D01*
X8885015Y-16794436D02*
X8894539Y-16803960D01*
X8894539Y-16803960D02*
X8885015Y-16813484D01*
X8885015Y-16813484D02*
X8875491Y-16803960D01*
X8875491Y-16803960D02*
X8885015Y-16794436D01*
X8885015Y-16794436D02*
X8885015Y-16813484D01*
X9018348Y-16613484D02*
X9037396Y-16613484D01*
X9037396Y-16613484D02*
X9056444Y-16623008D01*
X9056444Y-16623008D02*
X9065968Y-16632531D01*
X9065968Y-16632531D02*
X9075491Y-16651579D01*
X9075491Y-16651579D02*
X9085015Y-16689674D01*
X9085015Y-16689674D02*
X9085015Y-16737293D01*
X9085015Y-16737293D02*
X9075491Y-16775388D01*
X9075491Y-16775388D02*
X9065968Y-16794436D01*
X9065968Y-16794436D02*
X9056444Y-16803960D01*
X9056444Y-16803960D02*
X9037396Y-16813484D01*
X9037396Y-16813484D02*
X9018348Y-16813484D01*
X9018348Y-16813484D02*
X8999301Y-16803960D01*
X8999301Y-16803960D02*
X8989777Y-16794436D01*
X8989777Y-16794436D02*
X8980253Y-16775388D01*
X8980253Y-16775388D02*
X8970729Y-16737293D01*
X8970729Y-16737293D02*
X8970729Y-16689674D01*
X8970729Y-16689674D02*
X8980253Y-16651579D01*
X8980253Y-16651579D02*
X8989777Y-16632531D01*
X8989777Y-16632531D02*
X8999301Y-16623008D01*
X8999301Y-16623008D02*
X9018348Y-16613484D01*
X9256444Y-16680150D02*
X9256444Y-16813484D01*
X9208825Y-16603960D02*
X9161206Y-16746817D01*
X9161206Y-16746817D02*
X9285015Y-16746817D01*
X9342158Y-16613484D02*
X9475491Y-16613484D01*
X9475491Y-16613484D02*
X9389777Y-16813484D01*
X9542158Y-16632531D02*
X9551682Y-16623008D01*
X9551682Y-16623008D02*
X9570729Y-16613484D01*
X9570729Y-16613484D02*
X9618349Y-16613484D01*
X9618349Y-16613484D02*
X9637396Y-16623008D01*
X9637396Y-16623008D02*
X9646920Y-16632531D01*
X9646920Y-16632531D02*
X9656444Y-16651579D01*
X9656444Y-16651579D02*
X9656444Y-16670627D01*
X9656444Y-16670627D02*
X9646920Y-16699198D01*
X9646920Y-16699198D02*
X9532634Y-16813484D01*
X9532634Y-16813484D02*
X9656444Y-16813484D01*
X9732634Y-16613484D02*
X9732634Y-16651579D01*
X9808825Y-16613484D02*
X9808825Y-16651579D01*
X10104063Y-16889674D02*
X10094539Y-16880150D01*
X10094539Y-16880150D02*
X10075491Y-16851579D01*
X10075491Y-16851579D02*
X10065968Y-16832531D01*
X10065968Y-16832531D02*
X10056444Y-16803960D01*
X10056444Y-16803960D02*
X10046920Y-16756341D01*
X10046920Y-16756341D02*
X10046920Y-16718246D01*
X10046920Y-16718246D02*
X10056444Y-16670627D01*
X10056444Y-16670627D02*
X10065968Y-16642055D01*
X10065968Y-16642055D02*
X10075491Y-16623008D01*
X10075491Y-16623008D02*
X10094539Y-16594436D01*
X10094539Y-16594436D02*
X10104063Y-16584912D01*
X10208825Y-16699198D02*
X10189777Y-16689674D01*
X10189777Y-16689674D02*
X10180253Y-16680150D01*
X10180253Y-16680150D02*
X10170730Y-16661103D01*
X10170730Y-16661103D02*
X10170730Y-16651579D01*
X10170730Y-16651579D02*
X10180253Y-16632531D01*
X10180253Y-16632531D02*
X10189777Y-16623008D01*
X10189777Y-16623008D02*
X10208825Y-16613484D01*
X10208825Y-16613484D02*
X10246920Y-16613484D01*
X10246920Y-16613484D02*
X10265968Y-16623008D01*
X10265968Y-16623008D02*
X10275491Y-16632531D01*
X10275491Y-16632531D02*
X10285015Y-16651579D01*
X10285015Y-16651579D02*
X10285015Y-16661103D01*
X10285015Y-16661103D02*
X10275491Y-16680150D01*
X10275491Y-16680150D02*
X10265968Y-16689674D01*
X10265968Y-16689674D02*
X10246920Y-16699198D01*
X10246920Y-16699198D02*
X10208825Y-16699198D01*
X10208825Y-16699198D02*
X10189777Y-16708722D01*
X10189777Y-16708722D02*
X10180253Y-16718246D01*
X10180253Y-16718246D02*
X10170730Y-16737293D01*
X10170730Y-16737293D02*
X10170730Y-16775388D01*
X10170730Y-16775388D02*
X10180253Y-16794436D01*
X10180253Y-16794436D02*
X10189777Y-16803960D01*
X10189777Y-16803960D02*
X10208825Y-16813484D01*
X10208825Y-16813484D02*
X10246920Y-16813484D01*
X10246920Y-16813484D02*
X10265968Y-16803960D01*
X10265968Y-16803960D02*
X10275491Y-16794436D01*
X10275491Y-16794436D02*
X10285015Y-16775388D01*
X10285015Y-16775388D02*
X10285015Y-16737293D01*
X10285015Y-16737293D02*
X10275491Y-16718246D01*
X10275491Y-16718246D02*
X10265968Y-16708722D01*
X10265968Y-16708722D02*
X10246920Y-16699198D01*
X10523111Y-16813484D02*
X10523111Y-16613484D01*
X10608825Y-16813484D02*
X10608825Y-16708722D01*
X10608825Y-16708722D02*
X10599301Y-16689674D01*
X10599301Y-16689674D02*
X10580253Y-16680150D01*
X10580253Y-16680150D02*
X10551682Y-16680150D01*
X10551682Y-16680150D02*
X10532634Y-16689674D01*
X10532634Y-16689674D02*
X10523111Y-16699198D01*
X10732634Y-16813484D02*
X10713587Y-16803960D01*
X10713587Y-16803960D02*
X10704063Y-16794436D01*
X10704063Y-16794436D02*
X10694539Y-16775388D01*
X10694539Y-16775388D02*
X10694539Y-16718246D01*
X10694539Y-16718246D02*
X10704063Y-16699198D01*
X10704063Y-16699198D02*
X10713587Y-16689674D01*
X10713587Y-16689674D02*
X10732634Y-16680150D01*
X10732634Y-16680150D02*
X10761206Y-16680150D01*
X10761206Y-16680150D02*
X10780253Y-16689674D01*
X10780253Y-16689674D02*
X10789777Y-16699198D01*
X10789777Y-16699198D02*
X10799301Y-16718246D01*
X10799301Y-16718246D02*
X10799301Y-16775388D01*
X10799301Y-16775388D02*
X10789777Y-16794436D01*
X10789777Y-16794436D02*
X10780253Y-16803960D01*
X10780253Y-16803960D02*
X10761206Y-16813484D01*
X10761206Y-16813484D02*
X10732634Y-16813484D01*
X10913587Y-16813484D02*
X10894539Y-16803960D01*
X10894539Y-16803960D02*
X10885015Y-16784912D01*
X10885015Y-16784912D02*
X10885015Y-16613484D01*
X11065968Y-16803960D02*
X11046920Y-16813484D01*
X11046920Y-16813484D02*
X11008825Y-16813484D01*
X11008825Y-16813484D02*
X10989777Y-16803960D01*
X10989777Y-16803960D02*
X10980253Y-16784912D01*
X10980253Y-16784912D02*
X10980253Y-16708722D01*
X10980253Y-16708722D02*
X10989777Y-16689674D01*
X10989777Y-16689674D02*
X11008825Y-16680150D01*
X11008825Y-16680150D02*
X11046920Y-16680150D01*
X11046920Y-16680150D02*
X11065968Y-16689674D01*
X11065968Y-16689674D02*
X11075492Y-16708722D01*
X11075492Y-16708722D02*
X11075492Y-16727769D01*
X11075492Y-16727769D02*
X10980253Y-16746817D01*
X11151682Y-16803960D02*
X11170730Y-16813484D01*
X11170730Y-16813484D02*
X11208825Y-16813484D01*
X11208825Y-16813484D02*
X11227872Y-16803960D01*
X11227872Y-16803960D02*
X11237396Y-16784912D01*
X11237396Y-16784912D02*
X11237396Y-16775388D01*
X11237396Y-16775388D02*
X11227872Y-16756341D01*
X11227872Y-16756341D02*
X11208825Y-16746817D01*
X11208825Y-16746817D02*
X11180253Y-16746817D01*
X11180253Y-16746817D02*
X11161206Y-16737293D01*
X11161206Y-16737293D02*
X11151682Y-16718246D01*
X11151682Y-16718246D02*
X11151682Y-16708722D01*
X11151682Y-16708722D02*
X11161206Y-16689674D01*
X11161206Y-16689674D02*
X11180253Y-16680150D01*
X11180253Y-16680150D02*
X11208825Y-16680150D01*
X11208825Y-16680150D02*
X11227872Y-16689674D01*
X11304063Y-16889674D02*
X11313587Y-16880150D01*
X11313587Y-16880150D02*
X11332634Y-16851579D01*
X11332634Y-16851579D02*
X11342158Y-16832531D01*
X11342158Y-16832531D02*
X11351682Y-16803960D01*
X11351682Y-16803960D02*
X11361206Y-16756341D01*
X11361206Y-16756341D02*
X11361206Y-16718246D01*
X11361206Y-16718246D02*
X11351682Y-16670627D01*
X11351682Y-16670627D02*
X11342158Y-16642055D01*
X11342158Y-16642055D02*
X11332634Y-16623008D01*
X11332634Y-16623008D02*
X11313587Y-16594436D01*
X11313587Y-16594436D02*
X11304063Y-16584912D01*
D15*
X6453000Y-17062000D02*
X6529000Y-16986000D01*
X6453000Y-16910000D01*
X6377000Y-16986000D01*
X6453000Y-17062000D01*
D10*
X6894539Y-17077484D02*
X6780253Y-17077484D01*
X6837396Y-17077484D02*
X6837396Y-16877484D01*
X6837396Y-16877484D02*
X6818348Y-16906055D01*
X6818348Y-16906055D02*
X6799301Y-16925103D01*
X6799301Y-16925103D02*
X6780253Y-16934627D01*
X6980253Y-17058436D02*
X6989777Y-17067960D01*
X6989777Y-17067960D02*
X6980253Y-17077484D01*
X6980253Y-17077484D02*
X6970729Y-17067960D01*
X6970729Y-17067960D02*
X6980253Y-17058436D01*
X6980253Y-17058436D02*
X6980253Y-17077484D01*
X7170729Y-16877484D02*
X7075491Y-16877484D01*
X7075491Y-16877484D02*
X7065967Y-16972722D01*
X7065967Y-16972722D02*
X7075491Y-16963198D01*
X7075491Y-16963198D02*
X7094539Y-16953674D01*
X7094539Y-16953674D02*
X7142158Y-16953674D01*
X7142158Y-16953674D02*
X7161205Y-16963198D01*
X7161205Y-16963198D02*
X7170729Y-16972722D01*
X7170729Y-16972722D02*
X7180253Y-16991770D01*
X7180253Y-16991770D02*
X7180253Y-17039389D01*
X7180253Y-17039389D02*
X7170729Y-17058436D01*
X7170729Y-17058436D02*
X7161205Y-17067960D01*
X7161205Y-17067960D02*
X7142158Y-17077484D01*
X7142158Y-17077484D02*
X7094539Y-17077484D01*
X7094539Y-17077484D02*
X7075491Y-17067960D01*
X7075491Y-17067960D02*
X7065967Y-17058436D01*
X7256443Y-16896531D02*
X7265967Y-16887008D01*
X7265967Y-16887008D02*
X7285015Y-16877484D01*
X7285015Y-16877484D02*
X7332634Y-16877484D01*
X7332634Y-16877484D02*
X7351682Y-16887008D01*
X7351682Y-16887008D02*
X7361205Y-16896531D01*
X7361205Y-16896531D02*
X7370729Y-16915579D01*
X7370729Y-16915579D02*
X7370729Y-16934627D01*
X7370729Y-16934627D02*
X7361205Y-16963198D01*
X7361205Y-16963198D02*
X7246920Y-17077484D01*
X7246920Y-17077484D02*
X7370729Y-17077484D01*
X7494539Y-16877484D02*
X7513586Y-16877484D01*
X7513586Y-16877484D02*
X7532634Y-16887008D01*
X7532634Y-16887008D02*
X7542158Y-16896531D01*
X7542158Y-16896531D02*
X7551682Y-16915579D01*
X7551682Y-16915579D02*
X7561205Y-16953674D01*
X7561205Y-16953674D02*
X7561205Y-17001293D01*
X7561205Y-17001293D02*
X7551682Y-17039389D01*
X7551682Y-17039389D02*
X7542158Y-17058436D01*
X7542158Y-17058436D02*
X7532634Y-17067960D01*
X7532634Y-17067960D02*
X7513586Y-17077484D01*
X7513586Y-17077484D02*
X7494539Y-17077484D01*
X7494539Y-17077484D02*
X7475491Y-17067960D01*
X7475491Y-17067960D02*
X7465967Y-17058436D01*
X7465967Y-17058436D02*
X7456443Y-17039389D01*
X7456443Y-17039389D02*
X7446920Y-17001293D01*
X7446920Y-17001293D02*
X7446920Y-16953674D01*
X7446920Y-16953674D02*
X7456443Y-16915579D01*
X7456443Y-16915579D02*
X7465967Y-16896531D01*
X7465967Y-16896531D02*
X7475491Y-16887008D01*
X7475491Y-16887008D02*
X7494539Y-16877484D01*
X7646920Y-17077484D02*
X7646920Y-16944150D01*
X7646920Y-16963198D02*
X7656443Y-16953674D01*
X7656443Y-16953674D02*
X7675491Y-16944150D01*
X7675491Y-16944150D02*
X7704063Y-16944150D01*
X7704063Y-16944150D02*
X7723110Y-16953674D01*
X7723110Y-16953674D02*
X7732634Y-16972722D01*
X7732634Y-16972722D02*
X7732634Y-17077484D01*
X7732634Y-16972722D02*
X7742158Y-16953674D01*
X7742158Y-16953674D02*
X7761205Y-16944150D01*
X7761205Y-16944150D02*
X7789777Y-16944150D01*
X7789777Y-16944150D02*
X7808824Y-16953674D01*
X7808824Y-16953674D02*
X7818348Y-16972722D01*
X7818348Y-16972722D02*
X7818348Y-17077484D01*
X7913586Y-17077484D02*
X7913586Y-16944150D01*
X7913586Y-16963198D02*
X7923110Y-16953674D01*
X7923110Y-16953674D02*
X7942158Y-16944150D01*
X7942158Y-16944150D02*
X7970729Y-16944150D01*
X7970729Y-16944150D02*
X7989777Y-16953674D01*
X7989777Y-16953674D02*
X7999301Y-16972722D01*
X7999301Y-16972722D02*
X7999301Y-17077484D01*
X7999301Y-16972722D02*
X8008824Y-16953674D01*
X8008824Y-16953674D02*
X8027872Y-16944150D01*
X8027872Y-16944150D02*
X8056443Y-16944150D01*
X8056443Y-16944150D02*
X8075491Y-16953674D01*
X8075491Y-16953674D02*
X8085015Y-16972722D01*
X8085015Y-16972722D02*
X8085015Y-17077484D01*
X8475491Y-16867960D02*
X8304063Y-17125103D01*
X8732634Y-16877484D02*
X8751682Y-16877484D01*
X8751682Y-16877484D02*
X8770729Y-16887008D01*
X8770729Y-16887008D02*
X8780253Y-16896531D01*
X8780253Y-16896531D02*
X8789777Y-16915579D01*
X8789777Y-16915579D02*
X8799301Y-16953674D01*
X8799301Y-16953674D02*
X8799301Y-17001293D01*
X8799301Y-17001293D02*
X8789777Y-17039389D01*
X8789777Y-17039389D02*
X8780253Y-17058436D01*
X8780253Y-17058436D02*
X8770729Y-17067960D01*
X8770729Y-17067960D02*
X8751682Y-17077484D01*
X8751682Y-17077484D02*
X8732634Y-17077484D01*
X8732634Y-17077484D02*
X8713587Y-17067960D01*
X8713587Y-17067960D02*
X8704063Y-17058436D01*
X8704063Y-17058436D02*
X8694539Y-17039389D01*
X8694539Y-17039389D02*
X8685015Y-17001293D01*
X8685015Y-17001293D02*
X8685015Y-16953674D01*
X8685015Y-16953674D02*
X8694539Y-16915579D01*
X8694539Y-16915579D02*
X8704063Y-16896531D01*
X8704063Y-16896531D02*
X8713587Y-16887008D01*
X8713587Y-16887008D02*
X8732634Y-16877484D01*
X8885015Y-17058436D02*
X8894539Y-17067960D01*
X8894539Y-17067960D02*
X8885015Y-17077484D01*
X8885015Y-17077484D02*
X8875491Y-17067960D01*
X8875491Y-17067960D02*
X8885015Y-17058436D01*
X8885015Y-17058436D02*
X8885015Y-17077484D01*
X9018348Y-16877484D02*
X9037396Y-16877484D01*
X9037396Y-16877484D02*
X9056444Y-16887008D01*
X9056444Y-16887008D02*
X9065968Y-16896531D01*
X9065968Y-16896531D02*
X9075491Y-16915579D01*
X9075491Y-16915579D02*
X9085015Y-16953674D01*
X9085015Y-16953674D02*
X9085015Y-17001293D01*
X9085015Y-17001293D02*
X9075491Y-17039389D01*
X9075491Y-17039389D02*
X9065968Y-17058436D01*
X9065968Y-17058436D02*
X9056444Y-17067960D01*
X9056444Y-17067960D02*
X9037396Y-17077484D01*
X9037396Y-17077484D02*
X9018348Y-17077484D01*
X9018348Y-17077484D02*
X8999301Y-17067960D01*
X8999301Y-17067960D02*
X8989777Y-17058436D01*
X8989777Y-17058436D02*
X8980253Y-17039389D01*
X8980253Y-17039389D02*
X8970729Y-17001293D01*
X8970729Y-17001293D02*
X8970729Y-16953674D01*
X8970729Y-16953674D02*
X8980253Y-16915579D01*
X8980253Y-16915579D02*
X8989777Y-16896531D01*
X8989777Y-16896531D02*
X8999301Y-16887008D01*
X8999301Y-16887008D02*
X9018348Y-16877484D01*
X9265968Y-16877484D02*
X9170729Y-16877484D01*
X9170729Y-16877484D02*
X9161206Y-16972722D01*
X9161206Y-16972722D02*
X9170729Y-16963198D01*
X9170729Y-16963198D02*
X9189777Y-16953674D01*
X9189777Y-16953674D02*
X9237396Y-16953674D01*
X9237396Y-16953674D02*
X9256444Y-16963198D01*
X9256444Y-16963198D02*
X9265968Y-16972722D01*
X9265968Y-16972722D02*
X9275491Y-16991770D01*
X9275491Y-16991770D02*
X9275491Y-17039389D01*
X9275491Y-17039389D02*
X9265968Y-17058436D01*
X9265968Y-17058436D02*
X9256444Y-17067960D01*
X9256444Y-17067960D02*
X9237396Y-17077484D01*
X9237396Y-17077484D02*
X9189777Y-17077484D01*
X9189777Y-17077484D02*
X9170729Y-17067960D01*
X9170729Y-17067960D02*
X9161206Y-17058436D01*
X9370729Y-17077484D02*
X9408825Y-17077484D01*
X9408825Y-17077484D02*
X9427872Y-17067960D01*
X9427872Y-17067960D02*
X9437396Y-17058436D01*
X9437396Y-17058436D02*
X9456444Y-17029865D01*
X9456444Y-17029865D02*
X9465968Y-16991770D01*
X9465968Y-16991770D02*
X9465968Y-16915579D01*
X9465968Y-16915579D02*
X9456444Y-16896531D01*
X9456444Y-16896531D02*
X9446920Y-16887008D01*
X9446920Y-16887008D02*
X9427872Y-16877484D01*
X9427872Y-16877484D02*
X9389777Y-16877484D01*
X9389777Y-16877484D02*
X9370729Y-16887008D01*
X9370729Y-16887008D02*
X9361206Y-16896531D01*
X9361206Y-16896531D02*
X9351682Y-16915579D01*
X9351682Y-16915579D02*
X9351682Y-16963198D01*
X9351682Y-16963198D02*
X9361206Y-16982246D01*
X9361206Y-16982246D02*
X9370729Y-16991770D01*
X9370729Y-16991770D02*
X9389777Y-17001293D01*
X9389777Y-17001293D02*
X9427872Y-17001293D01*
X9427872Y-17001293D02*
X9446920Y-16991770D01*
X9446920Y-16991770D02*
X9456444Y-16982246D01*
X9456444Y-16982246D02*
X9465968Y-16963198D01*
X9580253Y-16963198D02*
X9561206Y-16953674D01*
X9561206Y-16953674D02*
X9551682Y-16944150D01*
X9551682Y-16944150D02*
X9542158Y-16925103D01*
X9542158Y-16925103D02*
X9542158Y-16915579D01*
X9542158Y-16915579D02*
X9551682Y-16896531D01*
X9551682Y-16896531D02*
X9561206Y-16887008D01*
X9561206Y-16887008D02*
X9580253Y-16877484D01*
X9580253Y-16877484D02*
X9618349Y-16877484D01*
X9618349Y-16877484D02*
X9637396Y-16887008D01*
X9637396Y-16887008D02*
X9646920Y-16896531D01*
X9646920Y-16896531D02*
X9656444Y-16915579D01*
X9656444Y-16915579D02*
X9656444Y-16925103D01*
X9656444Y-16925103D02*
X9646920Y-16944150D01*
X9646920Y-16944150D02*
X9637396Y-16953674D01*
X9637396Y-16953674D02*
X9618349Y-16963198D01*
X9618349Y-16963198D02*
X9580253Y-16963198D01*
X9580253Y-16963198D02*
X9561206Y-16972722D01*
X9561206Y-16972722D02*
X9551682Y-16982246D01*
X9551682Y-16982246D02*
X9542158Y-17001293D01*
X9542158Y-17001293D02*
X9542158Y-17039389D01*
X9542158Y-17039389D02*
X9551682Y-17058436D01*
X9551682Y-17058436D02*
X9561206Y-17067960D01*
X9561206Y-17067960D02*
X9580253Y-17077484D01*
X9580253Y-17077484D02*
X9618349Y-17077484D01*
X9618349Y-17077484D02*
X9637396Y-17067960D01*
X9637396Y-17067960D02*
X9646920Y-17058436D01*
X9646920Y-17058436D02*
X9656444Y-17039389D01*
X9656444Y-17039389D02*
X9656444Y-17001293D01*
X9656444Y-17001293D02*
X9646920Y-16982246D01*
X9646920Y-16982246D02*
X9637396Y-16972722D01*
X9637396Y-16972722D02*
X9618349Y-16963198D01*
X9732634Y-16877484D02*
X9732634Y-16915579D01*
X9808825Y-16877484D02*
X9808825Y-16915579D01*
X10104063Y-17153674D02*
X10094539Y-17144150D01*
X10094539Y-17144150D02*
X10075491Y-17115579D01*
X10075491Y-17115579D02*
X10065968Y-17096531D01*
X10065968Y-17096531D02*
X10056444Y-17067960D01*
X10056444Y-17067960D02*
X10046920Y-17020341D01*
X10046920Y-17020341D02*
X10046920Y-16982246D01*
X10046920Y-16982246D02*
X10056444Y-16934627D01*
X10056444Y-16934627D02*
X10065968Y-16906055D01*
X10065968Y-16906055D02*
X10075491Y-16887008D01*
X10075491Y-16887008D02*
X10094539Y-16858436D01*
X10094539Y-16858436D02*
X10104063Y-16848912D01*
X10170730Y-16896531D02*
X10180253Y-16887008D01*
X10180253Y-16887008D02*
X10199301Y-16877484D01*
X10199301Y-16877484D02*
X10246920Y-16877484D01*
X10246920Y-16877484D02*
X10265968Y-16887008D01*
X10265968Y-16887008D02*
X10275491Y-16896531D01*
X10275491Y-16896531D02*
X10285015Y-16915579D01*
X10285015Y-16915579D02*
X10285015Y-16934627D01*
X10285015Y-16934627D02*
X10275491Y-16963198D01*
X10275491Y-16963198D02*
X10161206Y-17077484D01*
X10161206Y-17077484D02*
X10285015Y-17077484D01*
X10523111Y-17077484D02*
X10523111Y-16877484D01*
X10608825Y-17077484D02*
X10608825Y-16972722D01*
X10608825Y-16972722D02*
X10599301Y-16953674D01*
X10599301Y-16953674D02*
X10580253Y-16944150D01*
X10580253Y-16944150D02*
X10551682Y-16944150D01*
X10551682Y-16944150D02*
X10532634Y-16953674D01*
X10532634Y-16953674D02*
X10523111Y-16963198D01*
X10732634Y-17077484D02*
X10713587Y-17067960D01*
X10713587Y-17067960D02*
X10704063Y-17058436D01*
X10704063Y-17058436D02*
X10694539Y-17039389D01*
X10694539Y-17039389D02*
X10694539Y-16982246D01*
X10694539Y-16982246D02*
X10704063Y-16963198D01*
X10704063Y-16963198D02*
X10713587Y-16953674D01*
X10713587Y-16953674D02*
X10732634Y-16944150D01*
X10732634Y-16944150D02*
X10761206Y-16944150D01*
X10761206Y-16944150D02*
X10780253Y-16953674D01*
X10780253Y-16953674D02*
X10789777Y-16963198D01*
X10789777Y-16963198D02*
X10799301Y-16982246D01*
X10799301Y-16982246D02*
X10799301Y-17039389D01*
X10799301Y-17039389D02*
X10789777Y-17058436D01*
X10789777Y-17058436D02*
X10780253Y-17067960D01*
X10780253Y-17067960D02*
X10761206Y-17077484D01*
X10761206Y-17077484D02*
X10732634Y-17077484D01*
X10913587Y-17077484D02*
X10894539Y-17067960D01*
X10894539Y-17067960D02*
X10885015Y-17048912D01*
X10885015Y-17048912D02*
X10885015Y-16877484D01*
X11065968Y-17067960D02*
X11046920Y-17077484D01*
X11046920Y-17077484D02*
X11008825Y-17077484D01*
X11008825Y-17077484D02*
X10989777Y-17067960D01*
X10989777Y-17067960D02*
X10980253Y-17048912D01*
X10980253Y-17048912D02*
X10980253Y-16972722D01*
X10980253Y-16972722D02*
X10989777Y-16953674D01*
X10989777Y-16953674D02*
X11008825Y-16944150D01*
X11008825Y-16944150D02*
X11046920Y-16944150D01*
X11046920Y-16944150D02*
X11065968Y-16953674D01*
X11065968Y-16953674D02*
X11075492Y-16972722D01*
X11075492Y-16972722D02*
X11075492Y-16991770D01*
X11075492Y-16991770D02*
X10980253Y-17010817D01*
X11151682Y-17067960D02*
X11170730Y-17077484D01*
X11170730Y-17077484D02*
X11208825Y-17077484D01*
X11208825Y-17077484D02*
X11227872Y-17067960D01*
X11227872Y-17067960D02*
X11237396Y-17048912D01*
X11237396Y-17048912D02*
X11237396Y-17039389D01*
X11237396Y-17039389D02*
X11227872Y-17020341D01*
X11227872Y-17020341D02*
X11208825Y-17010817D01*
X11208825Y-17010817D02*
X11180253Y-17010817D01*
X11180253Y-17010817D02*
X11161206Y-17001293D01*
X11161206Y-17001293D02*
X11151682Y-16982246D01*
X11151682Y-16982246D02*
X11151682Y-16972722D01*
X11151682Y-16972722D02*
X11161206Y-16953674D01*
X11161206Y-16953674D02*
X11180253Y-16944150D01*
X11180253Y-16944150D02*
X11208825Y-16944150D01*
X11208825Y-16944150D02*
X11227872Y-16953674D01*
X11304063Y-17153674D02*
X11313587Y-17144150D01*
X11313587Y-17144150D02*
X11332634Y-17115579D01*
X11332634Y-17115579D02*
X11342158Y-17096531D01*
X11342158Y-17096531D02*
X11351682Y-17067960D01*
X11351682Y-17067960D02*
X11361206Y-17020341D01*
X11361206Y-17020341D02*
X11361206Y-16982246D01*
X11361206Y-16982246D02*
X11351682Y-16934627D01*
X11351682Y-16934627D02*
X11342158Y-16906055D01*
X11342158Y-16906055D02*
X11332634Y-16887008D01*
X11332634Y-16887008D02*
X11313587Y-16858436D01*
X11313587Y-16858436D02*
X11304063Y-16848912D01*
X6329000Y-17158000D02*
X6529000Y-17358000D01*
X6529000Y-17158000D02*
X6329000Y-17358000D01*
X6529000Y-17258000D02*
G75*
G03*
X6529000Y-17258000I-100000J0D01*
G01*
X6770729Y-17149484D02*
X6894539Y-17149484D01*
X6894539Y-17149484D02*
X6827872Y-17225674D01*
X6827872Y-17225674D02*
X6856443Y-17225674D01*
X6856443Y-17225674D02*
X6875491Y-17235198D01*
X6875491Y-17235198D02*
X6885015Y-17244722D01*
X6885015Y-17244722D02*
X6894539Y-17263770D01*
X6894539Y-17263770D02*
X6894539Y-17311389D01*
X6894539Y-17311389D02*
X6885015Y-17330436D01*
X6885015Y-17330436D02*
X6875491Y-17339960D01*
X6875491Y-17339960D02*
X6856443Y-17349484D01*
X6856443Y-17349484D02*
X6799301Y-17349484D01*
X6799301Y-17349484D02*
X6780253Y-17339960D01*
X6780253Y-17339960D02*
X6770729Y-17330436D01*
X6980253Y-17330436D02*
X6989777Y-17339960D01*
X6989777Y-17339960D02*
X6980253Y-17349484D01*
X6980253Y-17349484D02*
X6970729Y-17339960D01*
X6970729Y-17339960D02*
X6980253Y-17330436D01*
X6980253Y-17330436D02*
X6980253Y-17349484D01*
X7180253Y-17349484D02*
X7065967Y-17349484D01*
X7123110Y-17349484D02*
X7123110Y-17149484D01*
X7123110Y-17149484D02*
X7104062Y-17178055D01*
X7104062Y-17178055D02*
X7085015Y-17197103D01*
X7085015Y-17197103D02*
X7065967Y-17206627D01*
X7294539Y-17235198D02*
X7275491Y-17225674D01*
X7275491Y-17225674D02*
X7265967Y-17216150D01*
X7265967Y-17216150D02*
X7256443Y-17197103D01*
X7256443Y-17197103D02*
X7256443Y-17187579D01*
X7256443Y-17187579D02*
X7265967Y-17168531D01*
X7265967Y-17168531D02*
X7275491Y-17159008D01*
X7275491Y-17159008D02*
X7294539Y-17149484D01*
X7294539Y-17149484D02*
X7332634Y-17149484D01*
X7332634Y-17149484D02*
X7351682Y-17159008D01*
X7351682Y-17159008D02*
X7361205Y-17168531D01*
X7361205Y-17168531D02*
X7370729Y-17187579D01*
X7370729Y-17187579D02*
X7370729Y-17197103D01*
X7370729Y-17197103D02*
X7361205Y-17216150D01*
X7361205Y-17216150D02*
X7351682Y-17225674D01*
X7351682Y-17225674D02*
X7332634Y-17235198D01*
X7332634Y-17235198D02*
X7294539Y-17235198D01*
X7294539Y-17235198D02*
X7275491Y-17244722D01*
X7275491Y-17244722D02*
X7265967Y-17254246D01*
X7265967Y-17254246D02*
X7256443Y-17273293D01*
X7256443Y-17273293D02*
X7256443Y-17311389D01*
X7256443Y-17311389D02*
X7265967Y-17330436D01*
X7265967Y-17330436D02*
X7275491Y-17339960D01*
X7275491Y-17339960D02*
X7294539Y-17349484D01*
X7294539Y-17349484D02*
X7332634Y-17349484D01*
X7332634Y-17349484D02*
X7351682Y-17339960D01*
X7351682Y-17339960D02*
X7361205Y-17330436D01*
X7361205Y-17330436D02*
X7370729Y-17311389D01*
X7370729Y-17311389D02*
X7370729Y-17273293D01*
X7370729Y-17273293D02*
X7361205Y-17254246D01*
X7361205Y-17254246D02*
X7351682Y-17244722D01*
X7351682Y-17244722D02*
X7332634Y-17235198D01*
X7494539Y-17149484D02*
X7513586Y-17149484D01*
X7513586Y-17149484D02*
X7532634Y-17159008D01*
X7532634Y-17159008D02*
X7542158Y-17168531D01*
X7542158Y-17168531D02*
X7551682Y-17187579D01*
X7551682Y-17187579D02*
X7561205Y-17225674D01*
X7561205Y-17225674D02*
X7561205Y-17273293D01*
X7561205Y-17273293D02*
X7551682Y-17311389D01*
X7551682Y-17311389D02*
X7542158Y-17330436D01*
X7542158Y-17330436D02*
X7532634Y-17339960D01*
X7532634Y-17339960D02*
X7513586Y-17349484D01*
X7513586Y-17349484D02*
X7494539Y-17349484D01*
X7494539Y-17349484D02*
X7475491Y-17339960D01*
X7475491Y-17339960D02*
X7465967Y-17330436D01*
X7465967Y-17330436D02*
X7456443Y-17311389D01*
X7456443Y-17311389D02*
X7446920Y-17273293D01*
X7446920Y-17273293D02*
X7446920Y-17225674D01*
X7446920Y-17225674D02*
X7456443Y-17187579D01*
X7456443Y-17187579D02*
X7465967Y-17168531D01*
X7465967Y-17168531D02*
X7475491Y-17159008D01*
X7475491Y-17159008D02*
X7494539Y-17149484D01*
X7646920Y-17349484D02*
X7646920Y-17216150D01*
X7646920Y-17235198D02*
X7656443Y-17225674D01*
X7656443Y-17225674D02*
X7675491Y-17216150D01*
X7675491Y-17216150D02*
X7704063Y-17216150D01*
X7704063Y-17216150D02*
X7723110Y-17225674D01*
X7723110Y-17225674D02*
X7732634Y-17244722D01*
X7732634Y-17244722D02*
X7732634Y-17349484D01*
X7732634Y-17244722D02*
X7742158Y-17225674D01*
X7742158Y-17225674D02*
X7761205Y-17216150D01*
X7761205Y-17216150D02*
X7789777Y-17216150D01*
X7789777Y-17216150D02*
X7808824Y-17225674D01*
X7808824Y-17225674D02*
X7818348Y-17244722D01*
X7818348Y-17244722D02*
X7818348Y-17349484D01*
X7913586Y-17349484D02*
X7913586Y-17216150D01*
X7913586Y-17235198D02*
X7923110Y-17225674D01*
X7923110Y-17225674D02*
X7942158Y-17216150D01*
X7942158Y-17216150D02*
X7970729Y-17216150D01*
X7970729Y-17216150D02*
X7989777Y-17225674D01*
X7989777Y-17225674D02*
X7999301Y-17244722D01*
X7999301Y-17244722D02*
X7999301Y-17349484D01*
X7999301Y-17244722D02*
X8008824Y-17225674D01*
X8008824Y-17225674D02*
X8027872Y-17216150D01*
X8027872Y-17216150D02*
X8056443Y-17216150D01*
X8056443Y-17216150D02*
X8075491Y-17225674D01*
X8075491Y-17225674D02*
X8085015Y-17244722D01*
X8085015Y-17244722D02*
X8085015Y-17349484D01*
X8475491Y-17139960D02*
X8304063Y-17397103D01*
X8732634Y-17149484D02*
X8751682Y-17149484D01*
X8751682Y-17149484D02*
X8770729Y-17159008D01*
X8770729Y-17159008D02*
X8780253Y-17168531D01*
X8780253Y-17168531D02*
X8789777Y-17187579D01*
X8789777Y-17187579D02*
X8799301Y-17225674D01*
X8799301Y-17225674D02*
X8799301Y-17273293D01*
X8799301Y-17273293D02*
X8789777Y-17311389D01*
X8789777Y-17311389D02*
X8780253Y-17330436D01*
X8780253Y-17330436D02*
X8770729Y-17339960D01*
X8770729Y-17339960D02*
X8751682Y-17349484D01*
X8751682Y-17349484D02*
X8732634Y-17349484D01*
X8732634Y-17349484D02*
X8713587Y-17339960D01*
X8713587Y-17339960D02*
X8704063Y-17330436D01*
X8704063Y-17330436D02*
X8694539Y-17311389D01*
X8694539Y-17311389D02*
X8685015Y-17273293D01*
X8685015Y-17273293D02*
X8685015Y-17225674D01*
X8685015Y-17225674D02*
X8694539Y-17187579D01*
X8694539Y-17187579D02*
X8704063Y-17168531D01*
X8704063Y-17168531D02*
X8713587Y-17159008D01*
X8713587Y-17159008D02*
X8732634Y-17149484D01*
X8885015Y-17330436D02*
X8894539Y-17339960D01*
X8894539Y-17339960D02*
X8885015Y-17349484D01*
X8885015Y-17349484D02*
X8875491Y-17339960D01*
X8875491Y-17339960D02*
X8885015Y-17330436D01*
X8885015Y-17330436D02*
X8885015Y-17349484D01*
X9085015Y-17349484D02*
X8970729Y-17349484D01*
X9027872Y-17349484D02*
X9027872Y-17149484D01*
X9027872Y-17149484D02*
X9008825Y-17178055D01*
X9008825Y-17178055D02*
X8989777Y-17197103D01*
X8989777Y-17197103D02*
X8970729Y-17206627D01*
X9161206Y-17168531D02*
X9170729Y-17159008D01*
X9170729Y-17159008D02*
X9189777Y-17149484D01*
X9189777Y-17149484D02*
X9237396Y-17149484D01*
X9237396Y-17149484D02*
X9256444Y-17159008D01*
X9256444Y-17159008D02*
X9265968Y-17168531D01*
X9265968Y-17168531D02*
X9275491Y-17187579D01*
X9275491Y-17187579D02*
X9275491Y-17206627D01*
X9275491Y-17206627D02*
X9265968Y-17235198D01*
X9265968Y-17235198D02*
X9151682Y-17349484D01*
X9151682Y-17349484D02*
X9275491Y-17349484D01*
X9456444Y-17149484D02*
X9361206Y-17149484D01*
X9361206Y-17149484D02*
X9351682Y-17244722D01*
X9351682Y-17244722D02*
X9361206Y-17235198D01*
X9361206Y-17235198D02*
X9380253Y-17225674D01*
X9380253Y-17225674D02*
X9427872Y-17225674D01*
X9427872Y-17225674D02*
X9446920Y-17235198D01*
X9446920Y-17235198D02*
X9456444Y-17244722D01*
X9456444Y-17244722D02*
X9465968Y-17263770D01*
X9465968Y-17263770D02*
X9465968Y-17311389D01*
X9465968Y-17311389D02*
X9456444Y-17330436D01*
X9456444Y-17330436D02*
X9446920Y-17339960D01*
X9446920Y-17339960D02*
X9427872Y-17349484D01*
X9427872Y-17349484D02*
X9380253Y-17349484D01*
X9380253Y-17349484D02*
X9361206Y-17339960D01*
X9361206Y-17339960D02*
X9351682Y-17330436D01*
X9542158Y-17168531D02*
X9551682Y-17159008D01*
X9551682Y-17159008D02*
X9570729Y-17149484D01*
X9570729Y-17149484D02*
X9618349Y-17149484D01*
X9618349Y-17149484D02*
X9637396Y-17159008D01*
X9637396Y-17159008D02*
X9646920Y-17168531D01*
X9646920Y-17168531D02*
X9656444Y-17187579D01*
X9656444Y-17187579D02*
X9656444Y-17206627D01*
X9656444Y-17206627D02*
X9646920Y-17235198D01*
X9646920Y-17235198D02*
X9532634Y-17349484D01*
X9532634Y-17349484D02*
X9656444Y-17349484D01*
X9732634Y-17149484D02*
X9732634Y-17187579D01*
X9808825Y-17149484D02*
X9808825Y-17187579D01*
X10104063Y-17425674D02*
X10094539Y-17416150D01*
X10094539Y-17416150D02*
X10075491Y-17387579D01*
X10075491Y-17387579D02*
X10065968Y-17368531D01*
X10065968Y-17368531D02*
X10056444Y-17339960D01*
X10056444Y-17339960D02*
X10046920Y-17292341D01*
X10046920Y-17292341D02*
X10046920Y-17254246D01*
X10046920Y-17254246D02*
X10056444Y-17206627D01*
X10056444Y-17206627D02*
X10065968Y-17178055D01*
X10065968Y-17178055D02*
X10075491Y-17159008D01*
X10075491Y-17159008D02*
X10094539Y-17130436D01*
X10094539Y-17130436D02*
X10104063Y-17120912D01*
X10265968Y-17216150D02*
X10265968Y-17349484D01*
X10218349Y-17139960D02*
X10170730Y-17282817D01*
X10170730Y-17282817D02*
X10294539Y-17282817D01*
X10523111Y-17349484D02*
X10523111Y-17149484D01*
X10608825Y-17349484D02*
X10608825Y-17244722D01*
X10608825Y-17244722D02*
X10599301Y-17225674D01*
X10599301Y-17225674D02*
X10580253Y-17216150D01*
X10580253Y-17216150D02*
X10551682Y-17216150D01*
X10551682Y-17216150D02*
X10532634Y-17225674D01*
X10532634Y-17225674D02*
X10523111Y-17235198D01*
X10732634Y-17349484D02*
X10713587Y-17339960D01*
X10713587Y-17339960D02*
X10704063Y-17330436D01*
X10704063Y-17330436D02*
X10694539Y-17311389D01*
X10694539Y-17311389D02*
X10694539Y-17254246D01*
X10694539Y-17254246D02*
X10704063Y-17235198D01*
X10704063Y-17235198D02*
X10713587Y-17225674D01*
X10713587Y-17225674D02*
X10732634Y-17216150D01*
X10732634Y-17216150D02*
X10761206Y-17216150D01*
X10761206Y-17216150D02*
X10780253Y-17225674D01*
X10780253Y-17225674D02*
X10789777Y-17235198D01*
X10789777Y-17235198D02*
X10799301Y-17254246D01*
X10799301Y-17254246D02*
X10799301Y-17311389D01*
X10799301Y-17311389D02*
X10789777Y-17330436D01*
X10789777Y-17330436D02*
X10780253Y-17339960D01*
X10780253Y-17339960D02*
X10761206Y-17349484D01*
X10761206Y-17349484D02*
X10732634Y-17349484D01*
X10913587Y-17349484D02*
X10894539Y-17339960D01*
X10894539Y-17339960D02*
X10885015Y-17320912D01*
X10885015Y-17320912D02*
X10885015Y-17149484D01*
X11065968Y-17339960D02*
X11046920Y-17349484D01*
X11046920Y-17349484D02*
X11008825Y-17349484D01*
X11008825Y-17349484D02*
X10989777Y-17339960D01*
X10989777Y-17339960D02*
X10980253Y-17320912D01*
X10980253Y-17320912D02*
X10980253Y-17244722D01*
X10980253Y-17244722D02*
X10989777Y-17225674D01*
X10989777Y-17225674D02*
X11008825Y-17216150D01*
X11008825Y-17216150D02*
X11046920Y-17216150D01*
X11046920Y-17216150D02*
X11065968Y-17225674D01*
X11065968Y-17225674D02*
X11075492Y-17244722D01*
X11075492Y-17244722D02*
X11075492Y-17263770D01*
X11075492Y-17263770D02*
X10980253Y-17282817D01*
X11151682Y-17339960D02*
X11170730Y-17349484D01*
X11170730Y-17349484D02*
X11208825Y-17349484D01*
X11208825Y-17349484D02*
X11227872Y-17339960D01*
X11227872Y-17339960D02*
X11237396Y-17320912D01*
X11237396Y-17320912D02*
X11237396Y-17311389D01*
X11237396Y-17311389D02*
X11227872Y-17292341D01*
X11227872Y-17292341D02*
X11208825Y-17282817D01*
X11208825Y-17282817D02*
X11180253Y-17282817D01*
X11180253Y-17282817D02*
X11161206Y-17273293D01*
X11161206Y-17273293D02*
X11151682Y-17254246D01*
X11151682Y-17254246D02*
X11151682Y-17244722D01*
X11151682Y-17244722D02*
X11161206Y-17225674D01*
X11161206Y-17225674D02*
X11180253Y-17216150D01*
X11180253Y-17216150D02*
X11208825Y-17216150D01*
X11208825Y-17216150D02*
X11227872Y-17225674D01*
X11304063Y-17425674D02*
X11313587Y-17416150D01*
X11313587Y-17416150D02*
X11332634Y-17387579D01*
X11332634Y-17387579D02*
X11342158Y-17368531D01*
X11342158Y-17368531D02*
X11351682Y-17339960D01*
X11351682Y-17339960D02*
X11361206Y-17292341D01*
X11361206Y-17292341D02*
X11361206Y-17254246D01*
X11361206Y-17254246D02*
X11351682Y-17206627D01*
X11351682Y-17206627D02*
X11342158Y-17178055D01*
X11342158Y-17178055D02*
X11332634Y-17159008D01*
X11332634Y-17159008D02*
X11313587Y-17130436D01*
X11313587Y-17130436D02*
X11304063Y-17120912D01*
M02*
